{
	"asset":{
		"generator":"Khronos glTF Blender I/O v4.2.83",
		"version":"2.0"
	},
	"extensionsUsed":[
		"KHR_materials_specular"
	],
	"scene":0,
	"scenes":[
		{
			"name":"Scene",
			"nodes":[
				63,
				111
			]
		}
	],
	"nodes":[
		{
			"name":"mixamorig:HeadTop_End",
			"rotation":[
				-1.257314531080602e-22,
				-1.5074631809757627e-14,
				1.0205660099089424e-17,
				1
			],
			"translation":[
				-2.5214023577357914e-12,
				0.25496864318847656,
				0.06474974006414413
			]
		},
		{
			"name":"mixamorig:Leye",
			"rotation":[
				-1.257314531080602e-22,
				-1.5081570703661534e-14,
				1.6185236250671954e-20,
				1
			],
			"translation":[
				0.03982895612716675,
				0.10747575014829636,
				0.10701075196266174
			]
		},
		{
			"name":"mixamorig:Reye",
			"rotation":[
				-1.257314531080602e-22,
				-1.5081570703661534e-14,
				1.6185236250671954e-20,
				1
			],
			"translation":[
				-0.03339530527591705,
				0.10687779635190964,
				0.10692593455314636
			]
		},
		{
			"children":[
				0,
				1,
				2
			],
			"name":"mixamorig:Head",
			"rotation":[
				-9.723287952567716e-09,
				2.2058430637628135e-09,
				-1.4049889723866116e-11,
				1
			],
			"translation":[
				4.5538923326704506e-11,
				0.07472610473632812,
				0.0189768485724926
			]
		},
		{
			"children":[
				3
			],
			"name":"mixamorig:Neck",
			"rotation":[
				7.925118187197052e-19,
				-2.205793547815915e-09,
				3.7749081638338566e-10,
				1
			],
			"scale":[
				1,
				0.9999999403953552,
				1
			],
			"translation":[
				-0.00027856824453920126,
				0.162087082862854,
				-0.049877408891916275
			]
		},
		{
			"name":"mixamorig:LeftHandThumb3",
			"rotation":[
				5.3513795137405396e-06,
				3.579072654247284e-06,
				-1.180125582322944e-05,
				1
			],
			"scale":[
				0.9999999403953552,
				0.9999999403953552,
				1.0000001192092896
			],
			"translation":[
				1.4319084584712982e-07,
				0.015943951904773712,
				-8.315437298733741e-07
			]
		},
		{
			"children":[
				5
			],
			"name":"mixamorig:LeftHandThumb2",
			"rotation":[
				3.0118972063064575e-06,
				7.711350917816162e-07,
				-2.643093466758728e-06,
				1
			],
			"translation":[
				1.3969838619232178e-08,
				0.023394450545310974,
				-1.330627128481865e-07
			]
		},
		{
			"children":[
				6
			],
			"name":"mixamorig:LeftHandThumb1",
			"rotation":[
				0.2186201959848404,
				0.07168783992528915,
				0.2547721862792969,
				0.9392322301864624
			],
			"scale":[
				1.0000001192092896,
				1,
				1
			],
			"translation":[
				-0.029522588476538658,
				0.06132085621356964,
				0.04040529206395149
			]
		},
		{
			"name":"mixamorig:LeftHandIndex3",
			"rotation":[
				1.1952697605011053e-06,
				-1.4342980136916594e-07,
				1.982133835554123e-05,
				1
			],
			"scale":[
				0.9999999403953552,
				0.9999999403953552,
				1
			],
			"translation":[
				7.808624857830182e-10,
				0.015095082111656666,
				1.1519994558284452e-07
			]
		},
		{
			"children":[
				8
			],
			"name":"mixamorig:LeftHandIndex2",
			"rotation":[
				-2.3934946511872113e-05,
				1.2163657459041133e-07,
				-1.1012872391802375e-06,
				1
			],
			"translation":[
				3.885247679136228e-10,
				0.02197437360882759,
				8.862046740887308e-08
			]
		},
		{
			"children":[
				9
			],
			"name":"mixamorig:LeftHandIndex1",
			"rotation":[
				6.627532457059715e-06,
				-1.8458013073541224e-07,
				-7.543712854385376e-06,
				1
			],
			"scale":[
				0.9999999403953552,
				0.9999999403953552,
				1
			],
			"translation":[
				-0.028818277642130852,
				0.13242623209953308,
				0.0030754024628549814
			]
		},
		{
			"name":"mixamorig:LeftHandMiddle3",
			"rotation":[
				-1.770017661328893e-05,
				2.1780719805519766e-07,
				-2.0700976165244356e-05,
				1
			],
			"scale":[
				0.9999999403953552,
				0.9999999403953552,
				1
			],
			"translation":[
				-2.310414970452257e-09,
				0.023882096633315086,
				-1.4030160144784531e-08
			]
		},
		{
			"children":[
				11
			],
			"name":"mixamorig:LeftHandMiddle2",
			"rotation":[
				2.053353819064796e-05,
				-1.894093770715699e-09,
				6.402376129699405e-06,
				1
			],
			"translation":[
				1.3912426766182762e-11,
				0.0228437390178442,
				6.20482367708064e-08
			]
		},
		{
			"children":[
				12
			],
			"name":"mixamorig:LeftHandMiddle1",
			"rotation":[
				-1.4559072951669805e-05,
				-1.1749492045964871e-07,
				2.2854646886116825e-06,
				1
			],
			"translation":[
				-0.00025156541960313916,
				0.13097833096981049,
				-3.4065888030454516e-06
			]
		},
		{
			"name":"mixamorig:LeftHandRing3",
			"rotation":[
				-7.901770004536957e-06,
				-4.2241026676492766e-07,
				-5.730659904656932e-05,
				1
			],
			"scale":[
				1.0000001192092896,
				1,
				1
			],
			"translation":[
				6.931372809049208e-09,
				0.018761632964015007,
				2.434491079839063e-07
			]
		},
		{
			"children":[
				14
			],
			"name":"mixamorig:LeftHandRing2",
			"rotation":[
				1.58845341502456e-05,
				4.371350428300502e-07,
				0.0001015886664390564,
				1
			],
			"translation":[
				8.683372243467602e-09,
				0.021663548424839973,
				1.0673839767605386e-07
			]
		},
		{
			"children":[
				15
			],
			"name":"mixamorig:LeftHandRing1",
			"rotation":[
				-1.5127334336284548e-06,
				-1.61237352358512e-07,
				-4.2345840483903885e-05,
				1
			],
			"translation":[
				0.027272557839751244,
				0.12216399610042572,
				0.0005741938366554677
			]
		},
		{
			"name":"mixamorig:LeftHandPinky3",
			"rotation":[
				-2.085300729959272e-05,
				-5.075558533462754e-07,
				-3.2312240364262834e-05,
				1
			],
			"translation":[
				-1.1323209037072957e-10,
				0.012784253805875778,
				9.277864876366948e-08
			]
		},
		{
			"children":[
				17
			],
			"name":"mixamorig:LeftHandPinky2",
			"rotation":[
				1.016583337332122e-05,
				4.940901021655009e-07,
				2.4509148715878837e-05,
				1
			],
			"translation":[
				1.1046383363577661e-08,
				0.015634628012776375,
				1.869457655345741e-08
			]
		},
		{
			"children":[
				18
			],
			"name":"mixamorig:LeftHandPinky1",
			"rotation":[
				2.3082543521013577e-06,
				-7.493821385651245e-08,
				-5.837530807184521e-06,
				1
			],
			"scale":[
				0.9999999403953552,
				0.9999999403953552,
				1
			],
			"translation":[
				0.05010176822543144,
				0.10912171751260757,
				0.0026928246952593327
			]
		},
		{
			"children":[
				7,
				10,
				13,
				16,
				19
			],
			"name":"mixamorig:LeftHand",
			"rotation":[
				-9.45090761206302e-08,
				9.617272667128418e-08,
				5.541351555393703e-08,
				1
			],
			"scale":[
				1,
				0.9999999403953552,
				1
			],
			"translation":[
				-4.955822419105971e-10,
				0.29664933681488037,
				2.906035660998896e-07
			]
		},
		{
			"children":[
				20
			],
			"name":"mixamorig:LeftForeArm",
			"rotation":[
				1.9900761571989278e-07,
				5.529892277422732e-08,
				0.008726532571017742,
				0.9999619126319885
			],
			"translation":[
				-3.1621567586626043e-09,
				0.2924044132232666,
				1.1174856950901813e-07
			]
		},
		{
			"children":[
				21
			],
			"name":"mixamorig:LeftArm",
			"rotation":[
				-0.1300894021987915,
				0.000232230537221767,
				0.0017693940317258239,
				0.9915006756782532
			],
			"scale":[
				0.9999998807907104,
				1,
				1
			],
			"translation":[
				-1.3006058452447178e-09,
				0.12247498333454132,
				-7.296694093383849e-08
			]
		},
		{
			"children":[
				22
			],
			"name":"mixamorig:LeftShoulder",
			"rotation":[
				0.5597947835922241,
				0.4314732849597931,
				-0.5617964267730713,
				0.4299362897872925
			],
			"scale":[
				1.000000238418579,
				1.0000001192092896,
				1.0000001192092896
			],
			"translation":[
				0.055313047021627426,
				0.1364043951034546,
				-0.04996300861239433
			]
		},
		{
			"name":"mixamorig:RightHandThumb3",
			"rotation":[
				9.547919034957886e-06,
				-4.4750049710273743e-07,
				9.975163266062737e-06,
				1
			],
			"scale":[
				1,
				0.9999999403953552,
				1
			],
			"translation":[
				5.269248504191637e-08,
				0.015943825244903564,
				1.766529749147594e-07
			]
		},
		{
			"children":[
				24
			],
			"name":"mixamorig:RightHandThumb2",
			"rotation":[
				-0.00015631131827831268,
				5.885958671569824e-07,
				1.093023456633091e-05,
				1
			],
			"translation":[
				-2.60770320892334e-08,
				0.02339773438870907,
				-2.657761797308922e-07
			]
		},
		{
			"children":[
				25
			],
			"name":"mixamorig:RightHandThumb1",
			"rotation":[
				0.21953287720680237,
				-0.06888920068740845,
				-0.2541055381298065,
				0.9394094347953796
			],
			"scale":[
				0.9999999403953552,
				1,
				0.9999999403953552
			],
			"translation":[
				0.029522605240345,
				0.061321016401052475,
				0.040400393307209015
			]
		},
		{
			"name":"mixamorig:RightHandIndex3",
			"rotation":[
				-3.6498072404356208e-06,
				-1.859523202085711e-08,
				-2.232147380709648e-05,
				1
			],
			"translation":[
				-1.8001458101934986e-09,
				0.015095063485205173,
				1.1397217036801521e-07
			]
		},
		{
			"children":[
				27
			],
			"name":"mixamorig:RightHandIndex2",
			"rotation":[
				-1.024884066502807e-09,
				3.572662998774234e-15,
				3.329012542963028e-06,
				1
			],
			"translation":[
				6.249933903745841e-11,
				0.021974992007017136,
				-7.133258428382305e-09
			]
		},
		{
			"children":[
				28
			],
			"name":"mixamorig:RightHandIndex1",
			"rotation":[
				-5.032768513046904e-07,
				1.1465537141930326e-07,
				7.0356763899326324e-06,
				1
			],
			"translation":[
				0.028818266466259956,
				0.13242611289024353,
				0.0030702902004122734
			]
		},
		{
			"name":"mixamorig:RightHandMiddle3",
			"rotation":[
				2.4957912501122337e-06,
				-2.3387484304748796e-07,
				1.9283501387690194e-05,
				1
			],
			"scale":[
				0.9999999403953552,
				0.9999999403953552,
				1
			],
			"translation":[
				1.4057093267183518e-09,
				0.023882105946540833,
				1.4916892610017385e-07
			]
		},
		{
			"children":[
				30
			],
			"name":"mixamorig:RightHandMiddle2",
			"rotation":[
				-2.495790795364883e-06,
				-3.636347400970408e-08,
				-5.97536563873291e-06,
				1
			],
			"translation":[
				-1.2175007668702165e-09,
				0.022842934355139732,
				-1.0812688522321423e-08
			]
		},
		{
			"children":[
				31
			],
			"name":"mixamorig:RightHandMiddle1",
			"rotation":[
				-5.042975885771739e-07,
				1.1465081684036704e-07,
				-1.9920989871025085e-06,
				1
			],
			"translation":[
				0.0002515519445296377,
				0.13097897171974182,
				-9.717745342641138e-06
			]
		},
		{
			"name":"mixamorig:RightHandRing3",
			"rotation":[
				6.354077413561754e-06,
				-1.2194331588943896e-07,
				5.6197404774138704e-05,
				1
			],
			"scale":[
				1,
				0.9999999403953552,
				1
			],
			"translation":[
				-2.0564812075463124e-09,
				0.018761057406663895,
				-7.616952757416584e-08
			]
		},
		{
			"children":[
				33
			],
			"name":"mixamorig:RightHandRing2",
			"rotation":[
				-6.354579454637133e-06,
				-2.8773165183793026e-08,
				-0.00010015815496444702,
				1
			],
			"translation":[
				5.354934273782419e-10,
				0.02166398987174034,
				1.0212699663725289e-07
			]
		},
		{
			"children":[
				34
			],
			"name":"mixamorig:RightHandRing1",
			"rotation":[
				-5.037879873270867e-07,
				1.1467293603573125e-07,
				4.187272861599922e-05,
				1
			],
			"translation":[
				-0.027272647246718407,
				0.12216397374868393,
				0.0005703645292669535
			]
		},
		{
			"name":"mixamorig:RightHandPinky3",
			"rotation":[
				9.324846359959338e-06,
				7.867556064411474e-07,
				4.87085912936891e-07,
				1
			],
			"translation":[
				-7.141125024645589e-09,
				0.012784048914909363,
				-9.527601463332758e-08
			]
		},
		{
			"children":[
				36
			],
			"name":"mixamorig:RightHandPinky2",
			"rotation":[
				-9.330282409791835e-06,
				-5.483404947881354e-07,
				-1.1734863392121042e-07,
				1
			],
			"translation":[
				3.933507741749054e-09,
				0.015635071322321892,
				-5.700434257960296e-08
			]
		},
		{
			"children":[
				37
			],
			"name":"mixamorig:RightHandPinky1",
			"rotation":[
				-4.988654609405785e-07,
				2.338612432595255e-07,
				2.3841846541472478e-07,
				1
			],
			"translation":[
				-0.05010195076465607,
				0.10912192612886429,
				0.0026902772951871157
			]
		},
		{
			"name":"katana_r",
			"rotation":[
				-0.5043854117393494,
				0.49563607573509216,
				-0.49559640884399414,
				0.5043200850486755
			],
			"scale":[
				0.009999986737966537,
				0.009999938309192657,
				0.009999985806643963
			],
			"translation":[
				-0.013094008900225163,
				0.09960195422172546,
				0.02019307017326355
			]
		},
		{
			"children":[
				26,
				29,
				32,
				35,
				38,
				39
			],
			"name":"mixamorig:RightHand",
			"rotation":[
				7.052277624097769e-07,
				-2.9396789003044432e-08,
				-8.102506399154663e-08,
				1
			],
			"translation":[
				-3.4434677331773855e-10,
				0.2966490089893341,
				6.691026754879204e-08
			]
		},
		{
			"children":[
				40
			],
			"name":"mixamorig:RightForeArm",
			"rotation":[
				-3.949141387238342e-07,
				-1.8858825612255714e-08,
				-0.008726511150598526,
				0.9999619126319885
			],
			"translation":[
				-4.847791501561005e-09,
				0.2924050986766815,
				5.4818741546114325e-08
			]
		},
		{
			"children":[
				41
			],
			"name":"mixamorig:RightArm",
			"rotation":[
				-0.13011038303375244,
				-0.00023217454145196825,
				-0.0017694374546408653,
				0.9914979338645935
			],
			"scale":[
				0.9999998807907104,
				0.9999999403953552,
				0.9999998807907104
			],
			"translation":[
				-3.020277361542867e-09,
				0.12247607856988907,
				-3.3291144063696265e-08
			]
		},
		{
			"children":[
				42
			],
			"name":"mixamorig:RightShoulder",
			"rotation":[
				0.5598035454750061,
				-0.43146219849586487,
				0.5618049502372742,
				0.4299250841140747
			],
			"scale":[
				1.0000001192092896,
				0.9999998807907104,
				1
			],
			"translation":[
				-0.055312998592853546,
				0.13640546798706055,
				-0.04996296018362045
			]
		},
		{
			"children":[
				4,
				23,
				43
			],
			"name":"mixamorig:Spine2",
			"rotation":[
				0.031116025522351265,
				-3.231135636827531e-10,
				-3.484129929010038e-10,
				0.9995157718658447
			],
			"scale":[
				1,
				0.9999999403953552,
				0.9999998807907104
			],
			"translation":[
				-1.5993416660475823e-11,
				0.1470237523317337,
				-5.587390106143175e-09
			]
		},
		{
			"children":[
				44
			],
			"name":"mixamorig:Spine1",
			"rotation":[
				-0.028289543464779854,
				-2.143391384379356e-06,
				-2.2672196791972965e-05,
				0.999599814414978
			],
			"scale":[
				1,
				1,
				0.9999999403953552
			],
			"translation":[
				5.731042165280087e-06,
				0.12633799016475677,
				-0.003575471928343177
			]
		},
		{
			"name":"mixamorig:Bow3",
			"rotation":[
				-0.059719428420066833,
				-0.007170196622610092,
				0.087933249771595,
				0.9943087697029114
			],
			"scale":[
				0.9999999403953552,
				1,
				1
			],
			"translation":[
				7.328947049245471e-08,
				0.15870071947574615,
				-5.005858838558197e-09
			]
		},
		{
			"children":[
				46
			],
			"name":"mixamorig:Bow2",
			"rotation":[
				-0.1327568143606186,
				0.007744460366666317,
				0.06882506608963013,
				0.9887258410453796
			],
			"scale":[
				0.9999999403953552,
				0.9999999403953552,
				1
			],
			"translation":[
				-3.207342302857796e-08,
				0.16399823129177094,
				-9.313225746154785e-10
			]
		},
		{
			"children":[
				47
			],
			"name":"mixamorig:Bow1",
			"rotation":[
				-0.9505668878555298,
				-0.2843210995197296,
				0.03427000716328621,
				0.12004048377275467
			],
			"scale":[
				1,
				0.9999999403953552,
				0.9999999403953552
			],
			"translation":[
				0.022249732166528702,
				0.0019265568116679788,
				-0.1378922462463379
			]
		},
		{
			"name":"mixamorig:Bow7",
			"rotation":[
				-0.06118100881576538,
				0.0045194863341748714,
				-0.0880332663655281,
				0.9942266345024109
			],
			"scale":[
				0.9999999403953552,
				1,
				1
			],
			"translation":[
				5.448850970424246e-08,
				0.1589718908071518,
				6.810296326875687e-09
			]
		},
		{
			"children":[
				49
			],
			"name":"mixamorig:Bow6",
			"rotation":[
				-0.10379844158887863,
				-0.007927710190415382,
				-0.06884406507015228,
				0.9921812415122986
			],
			"scale":[
				0.9999998807907104,
				0.9999999403953552,
				0.9999998807907104
			],
			"translation":[
				-8.29061406193432e-08,
				0.15984325110912323,
				6.51925802230835e-09
			]
		},
		{
			"children":[
				50
			],
			"name":"mixamorig:Bow5",
			"rotation":[
				-0.9521471261978149,
				0.2845761477947235,
				-0.030433209612965584,
				0.10726620256900787
			],
			"scale":[
				1.0000001192092896,
				1,
				0.9999999403953552
			],
			"translation":[
				-0.04365759715437889,
				0.06581193208694458,
				-0.10223167389631271
			]
		},
		{
			"children":[
				45,
				48,
				51
			],
			"name":"mixamorig:Spine",
			"rotation":[
				-0.002827709773555398,
				2.912319359893445e-06,
				2.1774127162643708e-05,
				0.9999960064888
			],
			"translation":[
				-4.776733021571999e-06,
				0.10964572429656982,
				-0.0006200994830578566
			]
		},
		{
			"name":"mixamorig:LeftToeBase",
			"rotation":[
				0.30675190687179565,
				1.5790578800078947e-07,
				-1.2205403798759562e-08,
				0.9517895579338074
			],
			"scale":[
				1,
				0.9999998807907104,
				0.9999999403953552
			],
			"translation":[
				2.1655679915966175e-07,
				0.17749999463558197,
				-7.925521572360594e-09
			]
		},
		{
			"children":[
				53
			],
			"name":"mixamorig:LeftFoot",
			"rotation":[
				0.48725196719169617,
				-1.7415121078556695e-07,
				6.151445290925039e-07,
				0.8732614517211914
			],
			"translation":[
				-7.668967683116534e-10,
				0.5048201680183411,
				1.641112135075673e-09
			]
		},
		{
			"children":[
				54
			],
			"name":"mixamorig:LeftLeg",
			"rotation":[
				-0.04676974192261696,
				2.1077646294997976e-07,
				2.5408857240449834e-08,
				0.9989057183265686
			],
			"scale":[
				1,
				0.9999998211860657,
				0.9999999403953552
			],
			"translation":[
				3.76294684301115e-09,
				0.46606993675231934,
				-1.420755069148072e-09
			]
		},
		{
			"children":[
				55
			],
			"name":"mixamorig:LeftUpLeg",
			"rotation":[
				2.7569832639073866e-08,
				0.009438741020858288,
				0.9999554753303528,
				7.995945452421438e-07
			],
			"scale":[
				1,
				0.9999998211860657,
				1
			],
			"translation":[
				0.12104282528162003,
				-0.06053205579519272,
				-0.01233242079615593
			]
		},
		{
			"name":"mixamorig:RightToeBase",
			"rotation":[
				0.30675363540649414,
				1.1389619203328039e-07,
				3.381694568815874e-07,
				0.9517889618873596
			],
			"scale":[
				1,
				0.9999999403953552,
				0.9999999403953552
			],
			"translation":[
				2.4228926420732932e-08,
				0.17750000953674316,
				2.9472488449755474e-08
			]
		},
		{
			"children":[
				57
			],
			"name":"mixamorig:RightFoot",
			"rotation":[
				0.4872508645057678,
				1.0117834108314128e-06,
				5.083020937490801e-07,
				0.8732620477676392
			],
			"translation":[
				-1.8246115729425583e-09,
				0.5048195719718933,
				1.7504291349723644e-09
			]
		},
		{
			"children":[
				58
			],
			"name":"mixamorig:RightLeg",
			"rotation":[
				-0.04676985368132591,
				-1.3986027624923736e-07,
				-6.723989258716756e-07,
				0.9989057183265686
			],
			"scale":[
				1,
				0.9999998807907104,
				0.9999998807907104
			],
			"translation":[
				2.4447501800750615e-09,
				0.4660678803920746,
				-2.0583854620781494e-09
			]
		},
		{
			"children":[
				59
			],
			"name":"mixamorig:RightUpLeg",
			"rotation":[
				3.223302087462798e-07,
				0.009438777342438698,
				0.9999554753303528,
				4.5866502773606044e-07
			],
			"scale":[
				1,
				1.0000001192092896,
				0.9999999403953552
			],
			"translation":[
				-0.12250155210494995,
				-0.0605337992310524,
				-0.012332389131188393
			]
		},
		{
			"children":[
				52,
				56,
				60
			],
			"name":"mixamorig:Hips",
			"rotation":[
				-0.7071067690849304,
				5.365200195228681e-07,
				6.239203571567487e-07,
				0.7071067690849304
			],
			"translation":[
				0.00072945945430547,
				0.010430104099214077,
				-1.1404939889907837
			]
		},
		{
			"mesh":0,
			"name":"Kachujin",
			"skin":0
		},
		{
			"children":[
				62,
				61
			],
			"name":"Armature",
			"rotation":[
				0.7071068286895752,
				0,
				0,
				0.7071068286895752
			]
		},
		{
			"name":"index_02_l",
			"rotation":[
				0.011628967709839344,
				-0.0035780298057943583,
				0.009485038928687572,
				0.9998809695243835
			],
			"scale":[
				0.9999999403953552,
				0.9999998807907104,
				0.9999998211860657
			],
			"translation":[
				4.249273777008057,
				-0.0482599176466465,
				-0.00018355250358581543
			]
		},
		{
			"children":[
				64
			],
			"name":"index_01_l",
			"rotation":[
				-0.0019461719784885645,
				-0.044734563678503036,
				0.07880748063325882,
				0.9958837628364563
			],
			"scale":[
				0.9999999403953552,
				1,
				1
			],
			"translation":[
				12.069597244262695,
				1.627753734588623,
				-2.0651493072509766
			]
		},
		{
			"name":"middle_02_l",
			"rotation":[
				-0.017240317538380623,
				-0.004309529438614845,
				0.009568785317242146,
				0.9997963309288025
			],
			"scale":[
				0.9999998211860657,
				0.9999998211860657,
				0.9999998211860657
			],
			"translation":[
				4.608958721160889,
				-0.039975933730602264,
				0.005064845085144043
			]
		},
		{
			"children":[
				66
			],
			"name":"middle_01_l",
			"rotation":[
				0.0024579062592238188,
				-0.04110075533390045,
				0.07299358397722244,
				0.9964821338653564
			],
			"scale":[
				1,
				0.9999999403953552,
				1
			],
			"translation":[
				12.231202125549316,
				1.2114018201828003,
				0.5637995004653931
			]
		},
		{
			"name":"pinky_02_l",
			"rotation":[
				-0.004041069187223911,
				-0.0015689003048464656,
				-0.0005331181455403566,
				0.9999904632568359
			],
			"translation":[
				3.562331199645996,
				-0.04240356758236885,
				-0.0024464428424835205
			]
		},
		{
			"children":[
				68
			],
			"name":"pinky_01_l",
			"rotation":[
				-0.0017856679623946548,
				-0.04783371835947037,
				0.07923098653554916,
				0.9957063794136047
			],
			"scale":[
				0.9999999403953552,
				1,
				1.0000001192092896
			],
			"translation":[
				10.072022438049316,
				2.2876460552215576,
				4.57014274597168
			]
		},
		{
			"name":"ring_02_l",
			"rotation":[
				0.0018468459602445364,
				-0.004772337153553963,
				-0.0005470518372021616,
				0.9999867677688599
			],
			"scale":[
				0.9999997615814209,
				0.9999998211860657,
				0.9999998807907104
			],
			"translation":[
				4.4035820960998535,
				-0.056352417916059494,
				-0.00423547625541687
			]
		},
		{
			"children":[
				70
			],
			"name":"ring_01_l",
			"rotation":[
				0.004957044497132301,
				-0.04597502201795578,
				0.07772640883922577,
				0.9959017634391785
			],
			"scale":[
				0.9999999403953552,
				1,
				1.0000001192092896
			],
			"translation":[
				11.46380615234375,
				1.737924337387085,
				2.8036844730377197
			]
		},
		{
			"name":"thumb_02_l",
			"rotation":[
				0.015343835577368736,
				0.005325756035745144,
				0.0005827700952067971,
				0.9998679161071777
			],
			"scale":[
				1.0000001192092896,
				0.9999999403953552,
				0.9999999403953552
			],
			"translation":[
				3.845266819000244,
				-0.07946085929870605,
				0.046116650104522705
			]
		},
		{
			"children":[
				72
			],
			"name":"thumb_01_l",
			"rotation":[
				0.6169293522834778,
				0.39912235736846924,
				-0.021088657900691032,
				0.677978515625
			],
			"scale":[
				0.9999999403953552,
				1.0000001192092896,
				1
			],
			"translation":[
				4.763983249664307,
				2.4156458377838135,
				-2.5275444984436035
			]
		},
		{
			"children":[
				65,
				67,
				69,
				71,
				73
			],
			"name":"hand_l",
			"rotation":[
				-0.7903383374214172,
				-0.04520519822835922,
				-0.08586032688617706,
				0.6049378514289856
			],
			"scale":[
				0.9999999403953552,
				1,
				0.9999999403953552
			],
			"translation":[
				26.965974807739258,
				-0.0695490837097168,
				0.3208647072315216
			]
		},
		{
			"name":"lowerarm_twist_01_l",
			"rotation":[
				-2.956585376523435e-08,
				-1.8917489796876907e-09,
				2.374872742905154e-08,
				1
			],
			"scale":[
				0.9999999403953552,
				1,
				1
			],
			"translation":[
				14.000004768371582,
				-2.9802322387695312e-06,
				1.8328428268432617e-05
			]
		},
		{
			"children":[
				74,
				75
			],
			"name":"lowerarm_l",
			"rotation":[
				-0.05803253501653671,
				0.009217940270900726,
				-0.002182925818488002,
				0.9982697367668152
			],
			"scale":[
				1,
				0.9999999403953552,
				1
			],
			"translation":[
				30.477079391479492,
				0.11280229687690735,
				-0.04587610065937042
			]
		},
		{
			"name":"upperarm_twist_01_l",
			"rotation":[
				7.336893759202212e-09,
				2.561137080192566e-09,
				-1.7855199985206127e-08,
				1
			],
			"translation":[
				0.49998971819877625,
				6.034970283508301e-06,
				5.747377872467041e-05
			]
		},
		{
			"children":[
				76,
				77
			],
			"name":"upperarm_l",
			"rotation":[
				0.12915965914726257,
				-0.039018601179122925,
				-0.13906186819076538,
				0.9810490012168884
			],
			"scale":[
				1,
				0.9999999403953552,
				0.9999999403953552
			],
			"translation":[
				15.809671401977539,
				-0.0031859874725341797,
				0.004428878426551819
			]
		},
		{
			"children":[
				78
			],
			"name":"clavicle_l",
			"rotation":[
				0.14127583801746368,
				0.7064821720123291,
				0.0563967190682888,
				0.6911899447441101
			],
			"scale":[
				0.9999998807907104,
				0.9999997615814209,
				0.9999998807907104
			],
			"translation":[
				11.947061538696289,
				-2.948495626449585,
				-2.929918050765991
			]
		},
		{
			"name":"index_02_r",
			"rotation":[
				0.011628794483840466,
				-0.0035766633227467537,
				0.009484902955591679,
				0.9998809695243835
			],
			"scale":[
				1,
				1.0000001192092896,
				0.9999998807907104
			],
			"translation":[
				-4.249478340148926,
				0.0483720637857914,
				0.0001058727502822876
			]
		},
		{
			"children":[
				80
			],
			"name":"index_01_r",
			"rotation":[
				-0.0019457465969026089,
				-0.04473520442843437,
				0.07880714535713196,
				0.9958837628364563
			],
			"scale":[
				1,
				1,
				0.9999999403953552
			],
			"translation":[
				-12.069503784179688,
				-1.6280181407928467,
				2.065246820449829
			]
		},
		{
			"name":"middle_02_r",
			"rotation":[
				-0.01724034920334816,
				-0.004308017436414957,
				0.009568042121827602,
				0.9997963309288025
			],
			"scale":[
				0.9999999403953552,
				0.9999998807907104,
				0.9999998807907104
			],
			"translation":[
				-4.6091694831848145,
				0.03986935690045357,
				-0.00505673885345459
			]
		},
		{
			"children":[
				82
			],
			"name":"middle_01_r",
			"rotation":[
				0.002458335133269429,
				-0.04110110178589821,
				0.07299383729696274,
				0.9964821338653564
			],
			"scale":[
				1,
				1.0000001192092896,
				0.9999999403953552
			],
			"translation":[
				-12.23105525970459,
				-1.2114444971084595,
				-0.5637772083282471
			]
		},
		{
			"name":"pinky_02_r",
			"rotation":[
				-0.004041470121592283,
				-0.0015686667757108808,
				-0.0005320450873114169,
				0.9999904632568359
			],
			"scale":[
				0.9999999403953552,
				0.9999999403953552,
				0.9999999403953552
			],
			"translation":[
				-3.5624074935913086,
				0.042361125349998474,
				0.002447664737701416
			]
		},
		{
			"children":[
				84
			],
			"name":"pinky_01_r",
			"rotation":[
				-0.0017848662100732327,
				-0.04783366993069649,
				0.07923045754432678,
				0.9957064390182495
			],
			"scale":[
				1,
				0.9999998807907104,
				1
			],
			"translation":[
				-10.07199478149414,
				-2.287797689437866,
				-4.57015323638916
			]
		},
		{
			"name":"ring_02_r",
			"rotation":[
				0.0018463085871189833,
				-0.004772082902491093,
				-0.0005472435732372105,
				0.9999867677688599
			],
			"scale":[
				0.9999999403953552,
				0.9999998211860657,
				0.9999998807907104
			],
			"translation":[
				-4.403238773345947,
				0.05648244544863701,
				0.004219025373458862
			]
		},
		{
			"children":[
				86
			],
			"name":"ring_01_r",
			"rotation":[
				0.0049573276191949844,
				-0.045974865555763245,
				0.07772605121135712,
				0.9959018230438232
			],
			"scale":[
				0.9999999403953552,
				1,
				1
			],
			"translation":[
				-11.463969230651855,
				-1.7380836009979248,
				-2.8037142753601074
			]
		},
		{
			"name":"thumb_02_r",
			"rotation":[
				0.015342868864536285,
				0.0053263879381120205,
				0.0005824030959047377,
				0.9998679757118225
			],
			"translation":[
				-3.8451924324035645,
				0.07959985733032227,
				-0.046014606952667236
			]
		},
		{
			"children":[
				88
			],
			"name":"thumb_01_r",
			"rotation":[
				0.6169310808181763,
				0.39912089705467224,
				-0.02108900062739849,
				0.6779776811599731
			],
			"scale":[
				1,
				0.9999998807907104,
				1
			],
			"translation":[
				-4.764075756072998,
				-2.4157657623291016,
				2.52750825881958
			]
		},
		{
			"children":[
				81,
				83,
				85,
				87,
				89
			],
			"name":"hand_r",
			"rotation":[
				-0.7903390526771545,
				-0.045204535126686096,
				-0.08585996180772781,
				0.6049370765686035
			],
			"scale":[
				0.9999999403953552,
				1,
				0.9999999403953552
			],
			"translation":[
				-26.966054916381836,
				0.06956732273101807,
				-0.32080334424972534
			]
		},
		{
			"name":"lowerarm_twist_01_r",
			"rotation":[
				-0.11762695014476776,
				-8.175854304681707e-07,
				1.201305792619678e-07,
				0.993057906627655
			],
			"scale":[
				0.9999999403953552,
				1,
				1
			],
			"translation":[
				-14.000004768371582,
				1.8477439880371094e-05,
				-7.870793342590332e-05
			]
		},
		{
			"children":[
				90,
				91
			],
			"name":"lowerarm_r",
			"rotation":[
				-0.058032263070344925,
				0.0092170974239707,
				-0.002182639203965664,
				0.99826979637146
			],
			"scale":[
				1,
				1,
				0.9999999403953552
			],
			"translation":[
				-30.4771671295166,
				-0.11281108856201172,
				0.04583123326301575
			]
		},
		{
			"name":"upperarm_twist_01_r",
			"rotation":[
				-0.1732344925403595,
				2.7939370284002507e-07,
				-1.1359165341673361e-07,
				0.9848806262016296
			],
			"scale":[
				1,
				0.9999999403953552,
				0.9999999403953552
			],
			"translation":[
				-0.49999725818634033,
				-1.7702579498291016e-05,
				-3.269314765930176e-05
			]
		},
		{
			"children":[
				92,
				93
			],
			"name":"upperarm_r",
			"rotation":[
				0.12915857136249542,
				-0.039017338305711746,
				-0.13906274735927582,
				0.9810490608215332
			],
			"scale":[
				1,
				0.9999998807907104,
				0.9999999403953552
			],
			"translation":[
				-15.809521675109863,
				0.0031783580780029297,
				-0.004270687699317932
			]
		},
		{
			"children":[
				94
			],
			"name":"clavicle_r",
			"rotation":[
				0.7064815163612366,
				-0.14127576351165771,
				-0.6911906003952026,
				0.05639653652906418
			],
			"scale":[
				1.0000001192092896,
				1.0000001192092896,
				1.000001072883606
			],
			"translation":[
				11.947150230407715,
				-2.948503017425537,
				2.929926633834839
			]
		},
		{
			"name":"neck_01",
			"rotation":[
				-1.0649208661561715e-06,
				-3.225617462021546e-08,
				-0.11371029168367386,
				0.9935139417648315
			],
			"scale":[
				1,
				1,
				0.9999998807907104
			],
			"translation":[
				16.55891990661621,
				-0.35428234934806824,
				-4.773061391460942e-06
			]
		},
		{
			"children":[
				79,
				95,
				96
			],
			"name":"spine_03",
			"rotation":[
				-1.0090986535260527e-07,
				1.0489722512829758e-07,
				0.018372200429439545,
				0.9998312592506409
			],
			"scale":[
				0.9999999403953552,
				0.9999999403953552,
				1
			],
			"translation":[
				13.407146453857422,
				0.4209056794643402,
				-3.5967987059848383e-06
			]
		},
		{
			"children":[
				97
			],
			"name":"spine_02",
			"rotation":[
				-1.3014920341447578e-07,
				-4.134219011575624e-07,
				0.0795692577958107,
				0.9968293905258179
			],
			"scale":[
				1.0000001192092896,
				1.0000001192092896,
				1.0000001192092896
			],
			"translation":[
				18.881237030029297,
				3.79770565032959,
				1.009454808809096e-05
			]
		},
		{
			"children":[
				98
			],
			"name":"spine_01",
			"rotation":[
				1.0835384500751388e-06,
				-3.2307639230566565e-07,
				-0.09591439366340637,
				0.9953896403312683
			],
			"scale":[
				0.9999999403953552,
				0.9999999403953552,
				0.9999998807907104
			],
			"translation":[
				10.809207916259766,
				-0.850705087184906,
				2.680328907445073e-05
			]
		},
		{
			"name":"calf_twist_01_l",
			"rotation":[
				0.0028088954277336597,
				-0.0019333238014951348,
				-0.0076127019710838795,
				0.999965250492096
			],
			"scale":[
				1,
				1,
				1.0000001192092896
			],
			"translation":[
				-20.476781845092773,
				-5.781650543212891e-06,
				2.512708306312561e-06
			]
		},
		{
			"name":"foot_l",
			"rotation":[
				-0.017791246995329857,
				-0.02281530573964119,
				-0.012112023308873177,
				0.9995080232620239
			],
			"scale":[
				1,
				1.000000238418579,
				1
			],
			"translation":[
				-40.31450271606445,
				-0.06273846328258514,
				0.05839463323354721
			]
		},
		{
			"children":[
				100,
				101
			],
			"name":"calf_l",
			"rotation":[
				-0.04938211664557457,
				0.02478436380624771,
				0.005641250871121883,
				0.9984564781188965
			],
			"scale":[
				1.0000001192092896,
				0.9999999403953552,
				1.0000001192092896
			],
			"translation":[
				-42.5927619934082,
				0.03885279968380928,
				-0.004723832011222839
			]
		},
		{
			"name":"thigh_twist_01_l",
			"rotation":[
				-0.04744357988238335,
				2.1521715098060668e-05,
				-0.0004910679999738932,
				0.998873770236969
			],
			"scale":[
				1.0000001192092896,
				1,
				1
			],
			"translation":[
				-22.09421157836914,
				1.0943040251731873e-07,
				4.246830940246582e-07
			]
		},
		{
			"children":[
				102,
				103
			],
			"name":"thigh_l",
			"rotation":[
				0.06580404192209244,
				-0.009263532236218452,
				0.0011932702036574483,
				0.9977888464927673
			],
			"scale":[
				1,
				1,
				0.9999999403953552
			],
			"translation":[
				-1.4485664367675781,
				-0.5313823819160461,
				-9.005794525146484
			]
		},
		{
			"name":"calf_twist_01_r",
			"rotation":[
				0.002807346638292074,
				-0.0019336086697876453,
				-0.007612541783601046,
				0.999965250492096
			],
			"scale":[
				1,
				1.0000001192092896,
				1
			],
			"translation":[
				20.476911544799805,
				-7.748603820800781e-06,
				2.6153400540351868e-05
			]
		},
		{
			"name":"foot_r",
			"rotation":[
				-0.0177900567650795,
				-0.02281728945672512,
				-0.012111656367778778,
				0.9995079636573792
			],
			"scale":[
				1.0000001192092896,
				1.0000001192092896,
				1
			],
			"translation":[
				40.31462478637695,
				0.06271544098854065,
				-0.058311671018600464
			]
		},
		{
			"children":[
				105,
				106
			],
			"name":"calf_r",
			"rotation":[
				-0.04938267543911934,
				0.024784153327345848,
				0.0056406534276902676,
				0.9984564781188965
			],
			"scale":[
				0.9999998807907104,
				0.9999997615814209,
				1
			],
			"translation":[
				42.593013763427734,
				-0.03886422514915466,
				0.004841893911361694
			]
		},
		{
			"name":"thigh_twist_01_r",
			"rotation":[
				-0.047445524483919144,
				2.3105390937416814e-05,
				-0.0004912890144623816,
				0.9988737106323242
			],
			"scale":[
				0.9999999403953552,
				0.9999998807907104,
				0.9999998807907104
			],
			"translation":[
				22.0942440032959,
				7.57281668484211e-06,
				4.936009645462036e-05
			]
		},
		{
			"children":[
				107,
				108
			],
			"name":"thigh_r",
			"rotation":[
				-0.009260687045753002,
				-0.06580208241939545,
				-0.9977890253067017,
				0.0011933429632335901
			],
			"scale":[
				0.9999999403953552,
				0.9999999403953552,
				0.9999935626983643
			],
			"translation":[
				-1.4483733177185059,
				-0.5313814282417297,
				9.005826950073242
			]
		},
		{
			"children":[
				99,
				104,
				109
			],
			"name":"pelvis",
			"rotation":[
				-0.49908700585365295,
				-0.5009129047393799,
				0.49908447265625,
				0.5009123086929321
			],
			"scale":[
				0.9999999403953552,
				0.9999999403953552,
				1
			],
			"translation":[
				1.6079324268503115e-05,
				98.05184936523438,
				-1.0561493635177612
			]
		},
		{
			"children":[
				110
			],
			"name":"root",
			"scale":[
				0.009999999776482582,
				0.009999999776482582,
				0.009999999776482582
			]
		}
	],
	"materials":[
		{
			"doubleSided":true,
			"extensions":{
				"KHR_materials_specular":{
					"specularTexture":{
						"index":0
					}
				}
			},
			"name":"kachujin_MAT",
			"normalTexture":{
				"index":1
			},
			"pbrMetallicRoughness":{
				"baseColorTexture":{
					"index":2
				},
				"metallicFactor":0.5,
				"roughnessFactor":0.5527864098548889
			}
		},
		{
			"alphaMode":"BLEND",
			"doubleSided":true,
			"extensions":{
				"KHR_materials_specular":{
					"specularTexture":{
						"index":3
					}
				}
			},
			"name":"kachujin_MAT_",
			"normalTexture":{
				"index":4
			},
			"pbrMetallicRoughness":{
				"baseColorTexture":{
					"index":5
				},
				"metallicFactor":0.5,
				"roughnessFactor":0.5527864098548889
			}
		}
	],
	"meshes":[
		{
			"name":"Kachujin",
			"primitives":[
				{
					"attributes":{
						"POSITION":0,
						"NORMAL":1,
						"TEXCOORD_0":2,
						"JOINTS_0":3,
						"WEIGHTS_0":4
					},
					"indices":5,
					"material":0
				},
				{
					"attributes":{
						"POSITION":6,
						"NORMAL":7,
						"TEXCOORD_0":8,
						"JOINTS_0":9,
						"WEIGHTS_0":10
					},
					"indices":11,
					"material":1
				}
			]
		}
	],
	"textures":[
		{
			"sampler":0,
			"source":0
		},
		{
			"sampler":0,
			"source":1
		},
		{
			"sampler":0,
			"source":2
		},
		{
			"sampler":0,
			"source":0
		},
		{
			"sampler":0,
			"source":1
		},
		{
			"sampler":0,
			"source":3
		}
	],
	"images":[
		{
			"mimeType":"image/png",
			"name":"Kachujin_specular",
			"uri":"Kachujin_specular.png"
		},
		{
			"mimeType":"image/png",
			"name":"Kachujin_normal",
			"uri":"Kachujin_normal.png"
		},
		{
			"mimeType":"image/png",
			"name":"Kachujin_diffuse_body",
			"uri":"Kachujin_diffuse_body.png"
		},
		{
			"mimeType":"image/png",
			"name":"Kachujin_diffuse",
			"uri":"Kachujin_diffuse.png"
		}
	],
	"skins":[
		{
			"inverseBindMatrices":12,
			"joints":[
				61,
				52,
				45,
				44,
				4,
				3,
				0,
				1,
				2,
				23,
				22,
				21,
				20,
				7,
				6,
				5,
				10,
				9,
				8,
				13,
				12,
				11,
				16,
				15,
				14,
				19,
				18,
				17,
				43,
				42,
				41,
				40,
				26,
				25,
				24,
				29,
				28,
				27,
				32,
				31,
				30,
				35,
				34,
				33,
				38,
				37,
				36,
				48,
				47,
				46,
				51,
				50,
				49,
				56,
				55,
				54,
				53,
				60,
				59,
				58,
				57
			],
			"name":"Armature"
		},
		{
			"inverseBindMatrices":13,
			"joints":[
				110,
				99,
				98,
				97,
				79,
				78,
				76,
				74,
				65,
				64,
				67,
				66,
				69,
				68,
				71,
				70,
				73,
				72,
				75,
				77,
				95,
				94,
				92,
				90,
				81,
				80,
				83,
				82,
				85,
				84,
				87,
				86,
				89,
				88,
				91,
				93,
				96,
				104,
				102,
				100,
				101,
				103,
				109,
				107,
				105,
				106,
				108
			],
			"name":"root"
		}
	],
	"accessors":[
		{
			"bufferView":0,
			"componentType":5126,
			"count":7390,
			"max":[
				0.9693675637245178,
				2.0825226306915283,
				0.18354839086532593
			],
			"min":[
				-0.9696000218391418,
				0.005112056154757738,
				-0.2098570019006729
			],
			"type":"VEC3"
		},
		{
			"bufferView":1,
			"componentType":5126,
			"count":7390,
			"type":"VEC3"
		},
		{
			"bufferView":2,
			"componentType":5126,
			"count":7390,
			"type":"VEC2"
		},
		{
			"bufferView":3,
			"componentType":5121,
			"count":7390,
			"type":"VEC4"
		},
		{
			"bufferView":4,
			"componentType":5126,
			"count":7390,
			"type":"VEC4"
		},
		{
			"bufferView":5,
			"componentType":5123,
			"count":36618,
			"type":"SCALAR"
		},
		{
			"bufferView":6,
			"componentType":5126,
			"count":273,
			"max":[
				0.6493875980377197,
				1.6699650287628174,
				0.1746559590101242
			],
			"min":[
				-0.24452471733093262,
				0.862866997718811,
				-0.17249469459056854
			],
			"type":"VEC3"
		},
		{
			"bufferView":7,
			"componentType":5126,
			"count":273,
			"type":"VEC3"
		},
		{
			"bufferView":8,
			"componentType":5126,
			"count":273,
			"type":"VEC2"
		},
		{
			"bufferView":9,
			"componentType":5121,
			"count":273,
			"type":"VEC4"
		},
		{
			"bufferView":10,
			"componentType":5126,
			"count":273,
			"type":"VEC4"
		},
		{
			"bufferView":11,
			"componentType":5123,
			"count":1209,
			"type":"SCALAR"
		},
		{
			"bufferView":12,
			"componentType":5126,
			"count":61,
			"type":"MAT4"
		},
		{
			"bufferView":13,
			"componentType":5126,
			"count":47,
			"type":"MAT4"
		}
	],
	"bufferViews":[
		{
			"buffer":0,
			"byteLength":88680,
			"byteOffset":0,
			"target":34962
		},
		{
			"buffer":0,
			"byteLength":88680,
			"byteOffset":88680,
			"target":34962
		},
		{
			"buffer":0,
			"byteLength":59120,
			"byteOffset":177360,
			"target":34962
		},
		{
			"buffer":0,
			"byteLength":29560,
			"byteOffset":236480,
			"target":34962
		},
		{
			"buffer":0,
			"byteLength":118240,
			"byteOffset":266040,
			"target":34962
		},
		{
			"buffer":0,
			"byteLength":73236,
			"byteOffset":384280,
			"target":34963
		},
		{
			"buffer":0,
			"byteLength":3276,
			"byteOffset":457516,
			"target":34962
		},
		{
			"buffer":0,
			"byteLength":3276,
			"byteOffset":460792,
			"target":34962
		},
		{
			"buffer":0,
			"byteLength":2184,
			"byteOffset":464068,
			"target":34962
		},
		{
			"buffer":0,
			"byteLength":1092,
			"byteOffset":466252,
			"target":34962
		},
		{
			"buffer":0,
			"byteLength":4368,
			"byteOffset":467344,
			"target":34962
		},
		{
			"buffer":0,
			"byteLength":2418,
			"byteOffset":471712,
			"target":34963
		},
		{
			"buffer":0,
			"byteLength":3904,
			"byteOffset":474132
		},
		{
			"buffer":0,
			"byteLength":3008,
			"byteOffset":478036
		}
	],
	"samplers":[
		{
			"magFilter":9729,
			"minFilter":9987
		}
	],
	"buffers":[
		{
			"byteLength":481044,
			"uri":"kachujin.bin"
		}
	]
}
