{
	"asset":{
		"generator":"Khronos glTF Blender I/O v5.1.19",
		"version":"2.0"
	},
	"scene":0,
	"scenes":[
		{
			"name":"Scene",
			"nodes":[
				0
			]
		}
	],
	"nodes":[
		{
			"mesh":0,
			"name":"tripo_node_108e683b",
			"translation":[
				-0.0001373291015625,
				0,
				4.57763671875e-05
			]
		}
	],
	"materials":[
		{
			"doubleSided":true,
			"name":"tripo_mat_108e683b",
			"normalTexture":{
				"index":0
			},
			"pbrMetallicRoughness":{
				"baseColorTexture":{
					"index":1
				},
				"metallicRoughnessTexture":{
					"index":2
				}
			}
		}
	],
	"meshes":[
		{
			"name":"tripo_mesh_108e683b",
			"primitives":[
				{
					"attributes":{
						"POSITION":0,
						"NORMAL":1,
						"TEXCOORD_0":2
					},
					"indices":3,
					"material":0
				}
			]
		}
	],
	"textures":[
		{
			"sampler":0,
			"source":0
		},
		{
			"sampler":0,
			"source":1
		},
		{
			"sampler":0,
			"source":2
		}
	],
	"images":[
		{
			"mimeType":"image/png",
			"name":"traditional_japanese_stage_3d_model_normal",
			"uri":"traditional_japanese_stage_3d_model_normal.png"
		},
		{
			"mimeType":"image/jpeg",
			"name":"traditional_japanese_stage_3d_model_basecolor",
			"uri":"traditional_japanese_stage_3d_model_basecolor.jpg"
		},
		{
			"mimeType":"image/png",
			"name":"traditional_japanese_stage_3d_model_metallic-traditional_japanese_stage_3d_model_roughness",
			"uri":"traditional_japanese_stage_3d_model_metallic-traditional_japanese_stage_3d_model_roughness.png"
		}
	],
	"accessors":[
		{
			"bufferView":0,
			"componentType":5126,
			"count":1119116,
			"max":[
				0.4904938340187073,
				0.753173828125,
				0.4311676621437073
			],
			"min":[
				-0.4904938340187073,
				0,
				-0.4311676621437073
			],
			"type":"VEC3"
		},
		{
			"bufferView":1,
			"componentType":5126,
			"count":1119116,
			"type":"VEC3"
		},
		{
			"bufferView":2,
			"componentType":5126,
			"count":1119116,
			"type":"VEC2"
		},
		{
			"bufferView":3,
			"componentType":5125,
			"count":5500593,
			"type":"SCALAR"
		}
	],
	"bufferViews":[
		{
			"buffer":0,
			"byteLength":13429392,
			"byteOffset":0,
			"target":34962
		},
		{
			"buffer":0,
			"byteLength":13429392,
			"byteOffset":13429392,
			"target":34962
		},
		{
			"buffer":0,
			"byteLength":8952928,
			"byteOffset":26858784,
			"target":34962
		},
		{
			"buffer":0,
			"byteLength":22002372,
			"byteOffset":35811712,
			"target":34963
		}
	],
	"samplers":[
		{
			"magFilter":9729,
			"minFilter":9987
		}
	],
	"buffers":[
		{
			"byteLength":57814084,
			"uri":"Stage.bin"
		}
	]
}
