{
	"asset":{
		"generator":"Khronos glTF Blender I/O v5.1.19",
		"version":"2.0"
	},
	"scene":0,
	"scenes":[
		{
			"name":"Scene",
			"nodes":[
				0
			]
		}
	],
	"nodes":[
		{
			"mesh":0,
			"name":"Body",
			"rotation":[
				0.70710688829422,
				0,
				0,
				0.7071066498756409
			],
			"scale":[
				0.002500000176951289,
				0.0024999999441206455,
				0.0024999999441206455
			]
		}
	],
	"materials":[
		{
			"doubleSided":true,
			"name":"paper",
			"pbrMetallicRoughness":{
				"baseColorFactor":[
					0.8392156958580017,
					0.7058823704719543,
					0.5058823823928833,
					1
				],
				"metallicFactor":0
			}
		},
		{
			"doubleSided":true,
			"name":"tape",
			"pbrMetallicRoughness":{
				"baseColorFactor":[
					0.5176470875740051,
					0.40392157435417175,
					0.34117648005485535,
					1
				],
				"metallicFactor":0,
				"roughnessFactor":0.30000001192092896
			}
		}
	],
	"meshes":[
		{
			"name":"\u30c0\u30f3\u30dc\u30fc\u30eb.001",
			"primitives":[
				{
					"attributes":{
						"POSITION":0,
						"NORMAL":1,
						"TEXCOORD_0":2
					},
					"indices":3,
					"material":0
				},
				{
					"attributes":{
						"POSITION":4,
						"NORMAL":5,
						"TEXCOORD_0":6
					},
					"indices":7,
					"material":1
				}
			]
		}
	],
	"accessors":[
		{
			"bufferView":0,
			"componentType":5126,
			"count":319,
			"max":[
				23.988313674926758,
				16.334718704223633,
				-2.661263579284423e-06
			],
			"min":[
				-23.011686325073242,
				-16.665281295776367,
				-29.400001525878906
			],
			"type":"VEC3"
		},
		{
			"bufferView":1,
			"componentType":5126,
			"count":319,
			"type":"VEC3"
		},
		{
			"bufferView":2,
			"componentType":5126,
			"count":319,
			"type":"VEC2"
		},
		{
			"bufferView":3,
			"componentType":5123,
			"count":792,
			"type":"SCALAR"
		},
		{
			"bufferView":4,
			"componentType":5126,
			"count":168,
			"max":[
				24.00831413269043,
				2.834718704223633,
				0.019997337833046913
			],
			"min":[
				-23.031686782836914,
				-3.165281295776367,
				-29.420001983642578
			],
			"type":"VEC3"
		},
		{
			"bufferView":5,
			"componentType":5126,
			"count":168,
			"type":"VEC3"
		},
		{
			"bufferView":6,
			"componentType":5126,
			"count":168,
			"type":"VEC2"
		},
		{
			"bufferView":7,
			"componentType":5123,
			"count":408,
			"type":"SCALAR"
		}
	],
	"bufferViews":[
		{
			"buffer":0,
			"byteLength":3828,
			"byteOffset":0,
			"target":34962
		},
		{
			"buffer":0,
			"byteLength":3828,
			"byteOffset":3828,
			"target":34962
		},
		{
			"buffer":0,
			"byteLength":2552,
			"byteOffset":7656,
			"target":34962
		},
		{
			"buffer":0,
			"byteLength":1584,
			"byteOffset":10208,
			"target":34963
		},
		{
			"buffer":0,
			"byteLength":2016,
			"byteOffset":11792,
			"target":34962
		},
		{
			"buffer":0,
			"byteLength":2016,
			"byteOffset":13808,
			"target":34962
		},
		{
			"buffer":0,
			"byteLength":1344,
			"byteOffset":15824,
			"target":34962
		},
		{
			"buffer":0,
			"byteLength":816,
			"byteOffset":17168,
			"target":34963
		}
	],
	"buffers":[
		{
			"byteLength":17984,
			"uri":"Cardboard.bin"
		}
	]
}
