{
	"asset":{
		"generator":"Khronos glTF Blender I/O v4.2.83",
		"version":"2.0"
	},
	"extensionsUsed":[
		"KHR_materials_specular"
	],
	"scene":0,
	"scenes":[
		{
			"name":"Scene",
			"nodes":[
				66
			]
		}
	],
	"nodes":[
		{
			"name":"mixamorig:HeadTop_End",
			"rotation":[
				-1.7763568394002505e-15,
				1.8539545199417514e-22,
				3.597003779416077e-21,
				1
			],
			"scale":[
				1,
				1,
				1.0000001192092896
			],
			"translation":[
				-6.72570998894173e-10,
				15.601712226867676,
				7.553746223449707
			]
		},
		{
			"name":"mixamorig:LeftEye",
			"rotation":[
				-1.7763568394002505e-15,
				1.8539545199417514e-22,
				3.597003779416077e-21,
				1
			],
			"scale":[
				1,
				1,
				1.0000001192092896
			],
			"translation":[
				3.5287258625030518,
				2.4621241092681885,
				12.838188171386719
			]
		},
		{
			"name":"mixamorig:RightEye",
			"rotation":[
				-1.7763568394002505e-15,
				1.8539545199417514e-22,
				3.597003779416077e-21,
				1
			],
			"scale":[
				1,
				1,
				1.0000001192092896
			],
			"translation":[
				-3.528733015060425,
				2.462108850479126,
				12.838165283203125
			]
		},
		{
			"name":"mixamorig:Jaw",
			"rotation":[
				0.8909066915512085,
				3.780600865532786e-17,
				7.414978036334368e-17,
				0.4541863203048706
			],
			"scale":[
				1,
				1.0000001192092896,
				1
			],
			"translation":[
				-2.7766091079683974e-06,
				-2.317812919616699,
				3.6207079887390137
			]
		},
		{
			"children":[
				0,
				1,
				2,
				3
			],
			"name":"mixamorig:Head",
			"rotation":[
				-1.7763568394002505e-15,
				1.8539545199417514e-22,
				3.597003779416077e-21,
				1
			],
			"scale":[
				1,
				1,
				1.0000001192092896
			],
			"translation":[
				-4.031332767606699e-10,
				14.552517890930176,
				15.664097785949707
			]
		},
		{
			"children":[
				4
			],
			"name":"mixamorig:Neck",
			"rotation":[
				-1.7763568394002505e-15,
				1.8539545199417514e-22,
				3.597003779416077e-21,
				1
			],
			"scale":[
				1,
				1,
				1.0000001192092896
			],
			"translation":[
				-3.6061451047508797e-10,
				39.11761474609375,
				11.976994514465332
			]
		},
		{
			"name":"mixamorig:LeftHandThumb3",
			"rotation":[
				-3.72529001424482e-07,
				-8.03731381893158e-07,
				-5.015172064304352e-07,
				1
			],
			"scale":[
				1,
				1.0000001192092896,
				1
			],
			"translation":[
				2.384185791015625e-06,
				7.512331962585449,
				1.430511474609375e-06
			]
		},
		{
			"children":[
				6
			],
			"name":"mixamorig:LeftHandThumb2",
			"rotation":[
				2.015382278841571e-06,
				1.3918615877628326e-06,
				9.178184541269729e-07,
				1
			],
			"scale":[
				1,
				0.9999999403953552,
				0.9999999403953552
			],
			"translation":[
				7.3909759521484375e-06,
				7.536462783813477,
				-8.58306884765625e-06
			]
		},
		{
			"children":[
				7
			],
			"name":"mixamorig:LeftHandThumb1",
			"rotation":[
				0.2182437777519226,
				0.07159261405467987,
				0.2547696828842163,
				0.9393277168273926
			],
			"translation":[
				-7.05961275100708,
				6.094475746154785,
				4.397154808044434
			]
		},
		{
			"name":"mixamorig:LeftHandIndex3",
			"rotation":[
				4.785602527590527e-07,
				-2.0115763277317456e-07,
				-1.988371280958745e-07,
				1
			],
			"scale":[
				1.0000001192092896,
				1.0000001192092896,
				1
			],
			"translation":[
				5.938036338193342e-07,
				7.512309551239014,
				6.803671567467973e-06
			]
		},
		{
			"children":[
				9
			],
			"name":"mixamorig:LeftHandIndex2",
			"rotation":[
				1.0153937637369381e-06,
				8.752292046665389e-08,
				8.242201232633306e-08,
				1
			],
			"scale":[
				1.0000001192092896,
				1.0000001192092896,
				1
			],
			"translation":[
				9.937411959981546e-08,
				7.536488056182861,
				1.5794941646163352e-05
			]
		},
		{
			"children":[
				10
			],
			"name":"mixamorig:LeftHandIndex1",
			"rotation":[
				-3.7566843502645497e-07,
				-1.0194881383540633e-08,
				4.1164463482346036e-07,
				1
			],
			"scale":[
				1,
				0.9999998211860657,
				1
			],
			"translation":[
				-6.192904949188232,
				21.271059036254883,
				0.4987364411354065
			]
		},
		{
			"name":"mixamorig:LeftHandMiddle3",
			"rotation":[
				9.88062083706609e-07,
				3.122489999896061e-08,
				3.0733573908037215e-08,
				1
			],
			"scale":[
				1.0000001192092896,
				1.0000001192092896,
				1
			],
			"translation":[
				5.995370884193107e-07,
				7.015971660614014,
				1.6066480384324677e-05
			]
		},
		{
			"children":[
				12
			],
			"name":"mixamorig:LeftHandMiddle2",
			"rotation":[
				4.53048466797501e-11,
				-4.66077949567989e-08,
				-4.563479905073109e-08,
				1
			],
			"scale":[
				1.0000001192092896,
				1.0000001192092896,
				1
			],
			"translation":[
				7.409153113258071e-08,
				6.996592998504639,
				1.5562167391180992e-05
			]
		},
		{
			"children":[
				13
			],
			"name":"mixamorig:LeftHandMiddle1",
			"rotation":[
				-3.7590490364891593e-07,
				-1.8142531921228056e-09,
				4.144386025473068e-07,
				1
			],
			"scale":[
				1,
				0.9999998211860657,
				1
			],
			"translation":[
				0.016453007236123085,
				23.334453582763672,
				0.008607251569628716
			]
		},
		{
			"name":"mixamorig:LeftHandRing3",
			"rotation":[
				1.2414822094797273e-06,
				-1.3285776034877017e-08,
				-1.2107181035503345e-08,
				1
			],
			"scale":[
				1.0000001192092896,
				1.0000001192092896,
				1
			],
			"translation":[
				3.8800180846010335e-07,
				6.150252819061279,
				2.4313135327247437e-07
			]
		},
		{
			"children":[
				15
			],
			"name":"mixamorig:LeftHandRing2",
			"rotation":[
				-3.454406205527505e-10,
				4.097193695429269e-08,
				3.306194784613581e-08,
				1
			],
			"scale":[
				1.0000001192092896,
				1.0000001192092896,
				1
			],
			"translation":[
				1.0513940651435405e-07,
				6.4086174964904785,
				4.812807219423121e-08
			]
		},
		{
			"children":[
				16
			],
			"name":"mixamorig:LeftHandRing1",
			"rotation":[
				-3.7551416198766674e-07,
				-1.3952108801618124e-08,
				4.0885066709961393e-07,
				1
			],
			"scale":[
				1,
				0.9999998211860657,
				1
			],
			"translation":[
				6.516901016235352,
				22.686634063720703,
				0.103624127805233
			]
		},
		{
			"name":"mixamorig:LeftHandPinky3",
			"rotation":[
				2.789435137612469e-15,
				-3.448620589097118e-08,
				-3.4924592995366766e-08,
				1
			],
			"scale":[
				1.0000001192092896,
				1.0000001192092896,
				1
			],
			"translation":[
				-6.443533493438736e-07,
				5.233005523681641,
				1.588135819474701e-05
			]
		},
		{
			"children":[
				18
			],
			"name":"mixamorig:LeftHandPinky2",
			"rotation":[
				-2.727688630521641e-10,
				6.152295384254103e-08,
				7.264315371457997e-08,
				1
			],
			"scale":[
				1.0000001192092896,
				1.0000001192092896,
				1
			],
			"translation":[
				8.569986675865948e-08,
				4.919614315032959,
				-1.9619497493295057e-07
			]
		},
		{
			"children":[
				19
			],
			"name":"mixamorig:LeftHandPinky1",
			"rotation":[
				-3.755868362986803e-07,
				-1.8624271902467626e-08,
				3.874302478834579e-07,
				1
			],
			"scale":[
				1,
				0.9999998211860657,
				1
			],
			"translation":[
				11.443193435668945,
				18.881208419799805,
				0.46179646253585815
			]
		},
		{
			"children":[
				8,
				11,
				14,
				17,
				20
			],
			"name":"mixamorig:LeftHand",
			"rotation":[
				-3.48341586686729e-07,
				-3.306336537889365e-08,
				-2.1094456315040588e-07,
				1
			],
			"scale":[
				1,
				0.9999999403953552,
				1
			],
			"translation":[
				2.581994340289384e-05,
				31.604738235473633,
				1.2960291314811911e-05
			]
		},
		{
			"children":[
				21
			],
			"name":"mixamorig:LeftForeArm",
			"rotation":[
				8.873485057847574e-07,
				4.880496362602571e-08,
				0.008726353757083416,
				0.9999619126319885
			],
			"scale":[
				0.9999999403953552,
				1,
				1
			],
			"translation":[
				9.832474461290985e-07,
				49.3012809753418,
				-2.185893663408933e-06
			]
		},
		{
			"children":[
				22
			],
			"name":"mixamorig:LeftArm",
			"rotation":[
				0.14706416428089142,
				-0.006791902240365744,
				-0.04563131928443909,
				0.9880505204200745
			],
			"scale":[
				0.9999999403953552,
				1,
				0.9999999403953552
			],
			"translation":[
				4.172325134277344e-07,
				19.910381317138672,
				8.773169611231424e-06
			]
		},
		{
			"children":[
				23
			],
			"name":"mixamorig:LeftShoulder",
			"rotation":[
				0.4467046856880188,
				0.5481377243995667,
				-0.39428144693374634,
				0.5869771242141724
			],
			"scale":[
				1,
				0.9999998807907104,
				1
			],
			"translation":[
				17.39946937561035,
				24.61419677734375,
				1.1578713655471802
			]
		},
		{
			"name":"mixamorig:RightHandThumb3",
			"rotation":[
				3.212690353393555e-05,
				7.855705348447373e-07,
				-1.59931350935949e-05,
				1
			],
			"scale":[
				1.0000001192092896,
				1.0000001192092896,
				1
			],
			"translation":[
				-7.152557373046875e-06,
				7.512665748596191,
				-6.67572021484375e-06
			]
		},
		{
			"children":[
				25
			],
			"name":"mixamorig:RightHandThumb2",
			"rotation":[
				-3.1970441341400146e-05,
				-2.6496127247810364e-07,
				2.3829517886042595e-05,
				1
			],
			"scale":[
				1,
				1,
				1.0000001192092896
			],
			"translation":[
				5.0067901611328125e-06,
				7.536348342895508,
				-1.52587890625e-05
			]
		},
		{
			"children":[
				26
			],
			"name":"mixamorig:RightHandThumb1",
			"rotation":[
				0.21902218461036682,
				-0.0687580332159996,
				-0.2541135251522064,
				0.9395360350608826
			],
			"scale":[
				1,
				1,
				0.9999999403953552
			],
			"translation":[
				7.059656143188477,
				6.094003200531006,
				4.396989345550537
			]
		},
		{
			"name":"mixamorig:RightHandIndex3",
			"rotation":[
				-5.495603971894525e-15,
				3.448619168011646e-08,
				3.585591912269592e-08,
				1
			],
			"translation":[
				-7.681010174565017e-07,
				7.51297664642334,
				1.776600220182445e-05
			]
		},
		{
			"children":[
				28
			],
			"name":"mixamorig:RightHandIndex2",
			"rotation":[
				5.564992910933597e-15,
				5.402473846061184e-08,
				6.332993507385254e-08,
				1
			],
			"translation":[
				3.7545305531239137e-07,
				7.535989284515381,
				1.6495820091222413e-05
			]
		},
		{
			"children":[
				29
			],
			"name":"mixamorig:RightHandIndex1",
			"rotation":[
				-4.85722573273506e-17,
				1.625256179638157e-11,
				-1.8905849685779685e-07,
				1
			],
			"scale":[
				1,
				0.9999999403953552,
				1
			],
			"translation":[
				6.19285774230957,
				21.270992279052734,
				0.4990094006061554
			]
		},
		{
			"name":"mixamorig:RightHandMiddle3",
			"rotation":[
				-2.075563770631561e-06,
				-1.3919083663438414e-08,
				-1.4435710404825386e-08,
				1
			],
			"translation":[
				2.5182089302688837e-07,
				7.015982151031494,
				6.007073807268171e-07
			]
		},
		{
			"children":[
				31
			],
			"name":"mixamorig:RightHandMiddle2",
			"rotation":[
				1.0874956615225528e-06,
				6.744035374595114e-08,
				-6.477348506450653e-07,
				1
			],
			"scale":[
				1,
				0.9999999403953552,
				1
			],
			"translation":[
				1.765003617038019e-06,
				6.996993541717529,
				-1.4566239769919775e-05
			]
		},
		{
			"children":[
				32
			],
			"name":"mixamorig:RightHandMiddle1",
			"rotation":[
				-6.655236084451843e-11,
				-9.149275226327802e-10,
				-8.950011078923126e-07,
				1
			],
			"scale":[
				0.9999999403953552,
				0.9999999403953552,
				1
			],
			"translation":[
				-0.016452619805932045,
				23.33400535583496,
				0.008988100104033947
			]
		},
		{
			"name":"mixamorig:RightHandRing3",
			"rotation":[
				1.458902231538258e-15,
				-2.0518486465448404e-08,
				-8.102506399154663e-08,
				1
			],
			"scale":[
				1,
				1.0000001192092896,
				1
			],
			"translation":[
				-2.2211679606698453e-07,
				6.150018215179443,
				-1.5176688975770958e-05
			]
		},
		{
			"children":[
				34
			],
			"name":"mixamorig:RightHandRing2",
			"rotation":[
				1.0495076182626736e-14,
				2.5141879689272173e-08,
				7.12461769580841e-08,
				1
			],
			"scale":[
				1,
				1.0000001192092896,
				1
			],
			"translation":[
				1.326288838754408e-07,
				6.409024715423584,
				-1.5132200132939033e-05
			]
		},
		{
			"children":[
				35
			],
			"name":"mixamorig:RightHandRing1",
			"rotation":[
				-3.8892500331400015e-15,
				-1.3004020971152386e-08,
				-2.980232238769531e-07,
				1
			],
			"translation":[
				-6.516904354095459,
				22.686002731323242,
				0.10398873686790466
			]
		},
		{
			"name":"mixamorig:RightHandPinky3",
			"rotation":[
				3.747002708109903e-15,
				1.0337728895137843e-07,
				1.019798219203949e-07,
				1
			],
			"translation":[
				1.0641360859153792e-07,
				5.2329864501953125,
				5.701872396457475e-07
			]
		},
		{
			"children":[
				37
			],
			"name":"mixamorig:RightHandPinky2",
			"rotation":[
				2.55351295663786e-15,
				-1.00600011876395e-07,
				-1.5739351511001587e-07,
				1
			],
			"translation":[
				-1.814096322050318e-07,
				4.920022964477539,
				-6.38296455690579e-07
			]
		},
		{
			"children":[
				38
			],
			"name":"mixamorig:RightHandPinky1",
			"rotation":[
				2.373101715136272e-15,
				2.4259458442088544e-08,
				-9.685754776000977e-08,
				1
			],
			"translation":[
				-11.443199157714844,
				18.881004333496094,
				0.46200525760650635
			]
		},
		{
			"children":[
				27,
				30,
				33,
				36,
				39
			],
			"name":"mixamorig:RightHand",
			"rotation":[
				-1.8617052344183094e-14,
				-2.5158135130709525e-08,
				1.541338860988617e-07,
				1
			],
			"translation":[
				-2.0319341274444014e-05,
				31.604990005493164,
				1.6178448277059942e-05
			]
		},
		{
			"children":[
				40
			],
			"name":"mixamorig:RightForeArm",
			"rotation":[
				2.008686272869653e-10,
				4.131983288857555e-08,
				-0.0087263910099864,
				0.9999619126319885
			],
			"translation":[
				1.3935784863861045e-06,
				49.301300048828125,
				-1.4860301234875806e-05
			]
		},
		{
			"name":"mixamorig:RightArmour2",
			"rotation":[
				-0.17529302835464478,
				-0.06926599889993668,
				0.9762950539588928,
				0.10640771687030792
			],
			"scale":[
				0.9999988675117493,
				1.0000001192092896,
				0.9999991059303284
			],
			"translation":[
				3.8849258422851562,
				-9.462738037109375,
				-18.58489418029785
			]
		},
		{
			"name":"mixamorig:RightArmour4",
			"rotation":[
				0.9142043590545654,
				-0.18698790669441223,
				0.33319565653800964,
				0.13507980108261108
			],
			"scale":[
				1.0000005960464478,
				1.000000238418579,
				1.0000001192092896
			],
			"translation":[
				-2.6489410400390625,
				-11.494673728942871,
				22.19532012939453
			]
		},
		{
			"children":[
				42,
				43
			],
			"name":"mixamorig:RightArmour1",
			"rotation":[
				-0.5,
				0.5,
				-0.4999999701976776,
				0.5
			],
			"scale":[
				0.9999998807907104,
				0.9999997615814209,
				0.9999998211860657
			],
			"translation":[
				-1.4672610759735107,
				5.012874603271484,
				-18.471115112304688
			]
		},
		{
			"children":[
				41,
				44
			],
			"name":"mixamorig:RightArm",
			"rotation":[
				0.1470671147108078,
				0.006791999563574791,
				0.04563114419579506,
				0.9880500435829163
			],
			"scale":[
				1,
				1,
				1.0000001192092896
			],
			"translation":[
				3.5762786865234375e-07,
				19.91038703918457,
				-7.233352334878873e-06
			]
		},
		{
			"children":[
				45
			],
			"name":"mixamorig:RightShoulder",
			"rotation":[
				0.44670307636260986,
				-0.5481390357017517,
				0.3942798972129822,
				0.5869781374931335
			],
			"scale":[
				1.0000001192092896,
				1.0000001192092896,
				1
			],
			"translation":[
				-17.39950180053711,
				24.6142578125,
				1.1578727960586548
			]
		},
		{
			"children":[
				5,
				24,
				46
			],
			"name":"mixamorig:Spine2",
			"rotation":[
				-0.012070894241333008,
				2.4606292739011933e-21,
				1.4228570803936528e-21,
				0.9999271631240845
			],
			"translation":[
				7.730709128406232e-11,
				17.815839767456055,
				6.556510925292969e-07
			]
		},
		{
			"children":[
				47
			],
			"name":"mixamorig:Spine1",
			"rotation":[
				-0.004808545578271151,
				-2.6426890617808256e-16,
				5.417839909886181e-14,
				0.9999884366989136
			],
			"scale":[
				1,
				0.9999999403953552,
				0.9999998211860657
			],
			"translation":[
				1.049382941653576e-10,
				12.024327278137207,
				-5.960464477539063e-08
			]
		},
		{
			"children":[
				48
			],
			"name":"mixamorig:Spine",
			"rotation":[
				0.016878949478268623,
				4.7943061076693994e-08,
				-8.21443677523348e-07,
				0.9998575448989868
			],
			"scale":[
				1,
				0.9999999403953552,
				0.9999999403953552
			],
			"translation":[
				2.321336251043249e-05,
				13.78485107421875,
				0.0643615797162056
			]
		},
		{
			"name":"mixamorig:LeftToeBase",
			"rotation":[
				0.47258397936820984,
				4.866062681685435e-07,
				-2.17659732015818e-07,
				0.8812856674194336
			],
			"translation":[
				3.2851301511982456e-05,
				27.100004196166992,
				-1.4234146874514408e-06
			]
		},
		{
			"children":[
				50
			],
			"name":"mixamorig:LeftFoot",
			"rotation":[
				0.48443135619163513,
				-2.4601179120509187e-06,
				3.1857946396485204e-06,
				0.8748292922973633
			],
			"translation":[
				4.007500137959141e-06,
				32.68397521972656,
				-7.094247848726809e-06
			]
		},
		{
			"children":[
				51
			],
			"name":"mixamorig:LeftLeg",
			"rotation":[
				-0.3529105484485626,
				6.401945142897603e-07,
				-4.231140792398946e-06,
				0.9356570839881897
			],
			"scale":[
				1,
				0.9999999403953552,
				1
			],
			"translation":[
				-1.4721554180141538e-06,
				38.28287887573242,
				5.250185495242476e-07
			]
		},
		{
			"children":[
				52
			],
			"name":"mixamorig:LeftUpLeg",
			"rotation":[
				1.9272774807177484e-06,
				-0.14790228009223938,
				-0.989001989364624,
				7.164187536545796e-07
			],
			"scale":[
				1,
				1,
				1.0000008344650269
			],
			"translation":[
				19.899133682250977,
				-7.885080337524414,
				-3.4295430183410645
			]
		},
		{
			"name":"mixamorig:RightToeBase",
			"rotation":[
				0.47258225083351135,
				2.389105588918028e-07,
				5.722257583329338e-07,
				0.8812865614891052
			],
			"translation":[
				3.646964387371554e-06,
				27.099998474121094,
				1.3353019312489778e-07
			]
		},
		{
			"children":[
				54
			],
			"name":"mixamorig:RightFoot",
			"rotation":[
				0.484431654214859,
				4.624130838237761e-07,
				3.4181684327450057e-07,
				0.874829113483429
			],
			"translation":[
				-6.156282097435906e-07,
				32.68400573730469,
				-2.1388586901593953e-07
			]
		},
		{
			"children":[
				55
			],
			"name":"mixamorig:RightLeg",
			"rotation":[
				-0.35290980339050293,
				-1.2197418186588038e-07,
				5.198743124879002e-08,
				0.9356573224067688
			],
			"scale":[
				1,
				0.9999998807907104,
				1
			],
			"translation":[
				1.156089410869754e-06,
				38.28288269042969,
				1.8532628018874675e-06
			]
		},
		{
			"children":[
				56
			],
			"name":"mixamorig:RightUpLeg",
			"rotation":[
				1.0819761087077495e-07,
				0.1479019671678543,
				0.989001989364624,
				8.222045835282188e-07
			],
			"scale":[
				1,
				1.0000001192092896,
				1.0000005960464478
			],
			"translation":[
				-19.89911460876465,
				-7.885030269622803,
				-3.4295380115509033
			]
		},
		{
			"name":"mixamorig:FrontCloth3",
			"rotation":[
				0,
				3.552713678800501e-15,
				2.7908060086612636e-21,
				1
			],
			"translation":[
				-7.910209488294628e-13,
				13.74952507019043,
				-2.0486834273469867e-06
			]
		},
		{
			"children":[
				58
			],
			"name":"mixamorig:FrontCloth2",
			"rotation":[
				-5.472823528997889e-14,
				5.740795927522413e-08,
				-8.205175845432677e-07,
				1
			],
			"translation":[
				8.981260180007666e-12,
				10.763322830200195,
				7.279686542460695e-07
			]
		},
		{
			"children":[
				59
			],
			"name":"mixamorig:FrontCloth1",
			"rotation":[
				1,
				-1.6410348280260223e-06,
				-7.549790126404332e-08,
				3.9095652713469486e-16
			],
			"translation":[
				-3.217355697415769e-05,
				-19.940683364868164,
				22.17022705078125
			]
		},
		{
			"name":"mixamorig:BackCloth3",
			"rotation":[
				2.13412699012877e-22,
				-1.522012327097571e-22,
				1.3322682648248983e-15,
				1
			],
			"scale":[
				0.9999999403953552,
				0.9999999403953552,
				1
			],
			"translation":[
				17.777109146118164,
				-1.9073485191256623e-06,
				-1.3169196790840942e-06
			]
		},
		{
			"children":[
				61
			],
			"name":"mixamorig:BackCloth2",
			"rotation":[
				4.952482868247898e-10,
				1.2411887178307747e-14,
				1.3135731888878118e-15,
				1
			],
			"scale":[
				0.9999999403953552,
				0.9999999403953552,
				1
			],
			"translation":[
				15.308614730834961,
				-1.9073497696808772e-06,
				-3.789484253502451e-06
			]
		},
		{
			"children":[
				62
			],
			"name":"mixamorig:BackCloth1",
			"rotation":[
				-4.4050292302699745e-08,
				4.405035980425964e-08,
				-0.7071073055267334,
				0.7071062326431274
			],
			"scale":[
				0.9999998807907104,
				0.9999998807907104,
				1
			],
			"translation":[
				-1.4708497474202886e-05,
				-5.419210433959961,
				-29.3270206451416
			]
		},
		{
			"children":[
				49,
				53,
				57,
				60,
				63
			],
			"name":"mixamorig:Hips",
			"rotation":[
				-0.7071067690849304,
				5.364932462725847e-07,
				6.238934702196275e-07,
				0.7071067690849304
			],
			"translation":[
				2.1905061657889746e-06,
				3.073962926864624,
				-96.85275268554688
			]
		},
		{
			"mesh":0,
			"name":"Warrok",
			"skin":0
		},
		{
			"children":[
				65,
				64
			],
			"name":"Armature",
			"rotation":[
				0.7071068286895752,
				0,
				0,
				0.7071068286895752
			],
			"scale":[
				0.009999999776482582,
				0.009999999776482582,
				0.009999999776482582
			]
		}
	],
	"materials":[
		{
			"doubleSided":true,
			"extensions":{
				"KHR_materials_specular":{
					"specularTexture":{
						"index":0
					}
				}
			},
			"name":"warrok_MAT.001",
			"normalTexture":{
				"index":1
			},
			"pbrMetallicRoughness":{
				"baseColorTexture":{
					"index":2
				},
				"metallicFactor":0.5,
				"roughnessFactor":0.5527864098548889
			}
		}
	],
	"meshes":[
		{
			"name":"Warrok",
			"primitives":[
				{
					"attributes":{
						"POSITION":0,
						"NORMAL":1,
						"TEXCOORD_0":2,
						"COLOR_0":3,
						"COLOR_1":4,
						"JOINTS_0":5,
						"WEIGHTS_0":6
					},
					"indices":7,
					"material":0
				}
			]
		}
	],
	"textures":[
		{
			"sampler":0,
			"source":0
		},
		{
			"sampler":0,
			"source":1
		},
		{
			"sampler":0,
			"source":2
		}
	],
	"images":[
		{
			"mimeType":"image/png",
			"name":"bear_specular",
			"uri":"bear_specular.png"
		},
		{
			"mimeType":"image/png",
			"name":"bear_normal",
			"uri":"bear_normal.png"
		},
		{
			"mimeType":"image/png",
			"name":"bear_diffuse",
			"uri":"bear_diffuse.png"
		}
	],
	"skins":[
		{
			"inverseBindMatrices":8,
			"joints":[
				64,
				49,
				48,
				47,
				5,
				4,
				0,
				1,
				2,
				3,
				24,
				23,
				22,
				21,
				8,
				7,
				6,
				11,
				10,
				9,
				14,
				13,
				12,
				17,
				16,
				15,
				20,
				19,
				18,
				46,
				45,
				41,
				40,
				27,
				26,
				25,
				30,
				29,
				28,
				33,
				32,
				31,
				36,
				35,
				34,
				39,
				38,
				37,
				44,
				42,
				43,
				53,
				52,
				51,
				50,
				57,
				56,
				55,
				54,
				60,
				59,
				58,
				63,
				62,
				61
			],
			"name":"Armature"
		}
	],
	"accessors":[
		{
			"bufferView":0,
			"componentType":5126,
			"count":7568,
			"max":[
				1.6449369192123413,
				2.382877826690674,
				0.5218435525894165
			],
			"min":[
				-1.644937515258789,
				-0.0002508052857592702,
				-0.4859641194343567
			],
			"type":"VEC3"
		},
		{
			"bufferView":1,
			"componentType":5126,
			"count":7568,
			"type":"VEC3"
		},
		{
			"bufferView":2,
			"componentType":5126,
			"count":7568,
			"type":"VEC2"
		},
		{
			"bufferView":3,
			"componentType":5121,
			"count":7568,
			"normalized":true,
			"type":"VEC4"
		},
		{
			"bufferView":4,
			"componentType":5126,
			"count":7568,
			"type":"VEC3"
		},
		{
			"bufferView":5,
			"componentType":5121,
			"count":7568,
			"type":"VEC4"
		},
		{
			"bufferView":6,
			"componentType":5126,
			"count":7568,
			"type":"VEC4"
		},
		{
			"bufferView":7,
			"componentType":5123,
			"count":37878,
			"type":"SCALAR"
		},
		{
			"bufferView":8,
			"componentType":5126,
			"count":65,
			"type":"MAT4"
		}
	],
	"bufferViews":[
		{
			"buffer":0,
			"byteLength":90816,
			"byteOffset":0,
			"target":34962
		},
		{
			"buffer":0,
			"byteLength":90816,
			"byteOffset":90816,
			"target":34962
		},
		{
			"buffer":0,
			"byteLength":60544,
			"byteOffset":181632,
			"target":34962
		},
		{
			"buffer":0,
			"byteLength":30272,
			"byteOffset":242176,
			"target":34962
		},
		{
			"buffer":0,
			"byteLength":90816,
			"byteOffset":272448,
			"target":34962
		},
		{
			"buffer":0,
			"byteLength":30272,
			"byteOffset":363264,
			"target":34962
		},
		{
			"buffer":0,
			"byteLength":121088,
			"byteOffset":393536,
			"target":34962
		},
		{
			"buffer":0,
			"byteLength":75756,
			"byteOffset":514624,
			"target":34963
		},
		{
			"buffer":0,
			"byteLength":4160,
			"byteOffset":590380
		}
	],
	"samplers":[
		{
			"magFilter":9729,
			"minFilter":9987
		}
	],
	"buffers":[
		{
			"byteLength":594540,
			"uri":"Warrock.bin"
		}
	]
}
