{
	"asset":{
		"generator":"Khronos glTF Blender I/O v5.1.19",
		"version":"2.0"
	},
	"extensionsUsed":[
		"KHR_materials_specular"
	],
	"scene":0,
	"scenes":[
		{
			"name":"Scene",
			"nodes":[
				1
			]
		}
	],
	"nodes":[
		{
			"name":"Nose",
			"rotation":[
				-0.7071068286895752,
				0,
				0,
				0.7071068286895752
			],
			"translation":[
				0,
				0.10174853354692459,
				-0.31465089321136475
			]
		},
		{
			"children":[
				0
			],
			"mesh":0,
			"name":"DemonMask",
			"rotation":[
				0.7071068286895752,
				0,
				0,
				0.7071068286895752
			]
		}
	],
	"materials":[
		{
			"doubleSided":true,
			"extensions":{
				"KHR_materials_specular":{
					"specularColorFactor":[
						0.0,
						0.0,
						0.0
					]
				}
			},
			"name":"DemonMask_Material",
			"pbrMetallicRoughness":{
				"baseColorTexture":{
					"index":0
				},
				"metallicFactor":0,
				"roughnessFactor":0.5
			}
		}
	],
	"meshes":[
		{
			"name":"DemonMask",
			"primitives":[
				{
					"attributes":{
						"POSITION":0,
						"NORMAL":1,
						"TEXCOORD_0":2
					},
					"indices":3,
					"material":0
				}
			]
		}
	],
	"textures":[
		{
			"sampler":0,
			"source":0
		}
	],
	"images":[
		{
			"mimeType":"image/png",
			"name":"DemonMask_basecolor",
			"uri":"DemonMask_basecolor.png"
		}
	],
	"accessors":[
		{
			"bufferView":0,
			"componentType":5126,
			"count":3507,
			"max":[
				0.343994140625,
				0.273193359375,
				0
			],
			"min":[
				-0.343994140625,
				-0.273193359375,
				-0.99951171875
			],
			"type":"VEC3"
		},
		{
			"bufferView":1,
			"componentType":5126,
			"count":3507,
			"type":"VEC3"
		},
		{
			"bufferView":2,
			"componentType":5126,
			"count":3507,
			"type":"VEC2"
		},
		{
			"bufferView":3,
			"componentType":5123,
			"count":15936,
			"type":"SCALAR"
		}
	],
	"bufferViews":[
		{
			"buffer":0,
			"byteLength":42084,
			"byteOffset":0,
			"target":34962
		},
		{
			"buffer":0,
			"byteLength":42084,
			"byteOffset":42084,
			"target":34962
		},
		{
			"buffer":0,
			"byteLength":28056,
			"byteOffset":84168,
			"target":34962
		},
		{
			"buffer":0,
			"byteLength":31872,
			"byteOffset":112224,
			"target":34963
		}
	],
	"samplers":[
		{
			"magFilter":9729,
			"minFilter":9987
		}
	],
	"buffers":[
		{
			"byteLength":144096,
			"uri":"DemonMask.bin"
		}
	]
}
