{
	"asset":{
		"generator":"Khronos glTF Blender I/O v5.1.19",
		"version":"2.0"
	},
	"extensionsUsed":[
		"KHR_materials_specular"
	],
	"scene":0,
	"scenes":[
		{
			"name":"Scene",
			"nodes":[
				1
			]
		}
	],
	"nodes":[
		{
			"name":"Nose",
			"rotation":[
				-0.7071068286895752,
				0,
				0,
				0.7071068286895752
			],
			"translation":[
				0,
				0.13472270965576172,
				-0.3854849636554718
			]
		},
		{
			"children":[
				0
			],
			"mesh":0,
			"name":"WhiteMask",
			"rotation":[
				0.7071068286895752,
				0,
				0,
				0.7071068286895752
			]
		}
	],
	"materials":[
		{
			"doubleSided":true,
			"extensions":{
				"KHR_materials_specular":{
					"specularColorFactor":[
						0.0,
						0.0,
						0.0
					]
				}
			},
			"name":"WhiteMask",
			"pbrMetallicRoughness":{
				"baseColorTexture":{
					"index":0
				},
				"metallicFactor":0,
				"roughnessFactor":0.5
			}
		}
	],
	"meshes":[
		{
			"name":"WhiteMask",
			"primitives":[
				{
					"attributes":{
						"POSITION":0,
						"NORMAL":1,
						"TEXCOORD_0":2
					},
					"indices":3,
					"material":0
				}
			]
		}
	],
	"textures":[
		{
			"sampler":0,
			"source":0
		}
	],
	"images":[
		{
			"mimeType":"image/jpeg",
			"name":"WhiteMask_basecolor",
			"uri":"WhiteMask_basecolor.jpg"
		}
	],
	"accessors":[
		{
			"bufferView":0,
			"componentType":5126,
			"count":8994,
			"max":[
				0.331298828125,
				0.1901855319738388,
				0
			],
			"min":[
				-0.331298828125,
				-0.1901855319738388,
				-0.99951171875
			],
			"type":"VEC3"
		},
		{
			"bufferView":1,
			"componentType":5126,
			"count":8994,
			"type":"VEC3"
		},
		{
			"bufferView":2,
			"componentType":5126,
			"count":8994,
			"type":"VEC2"
		},
		{
			"bufferView":3,
			"componentType":5123,
			"count":30030,
			"type":"SCALAR"
		}
	],
	"bufferViews":[
		{
			"buffer":0,
			"byteLength":107928,
			"byteOffset":0,
			"target":34962
		},
		{
			"buffer":0,
			"byteLength":107928,
			"byteOffset":107928,
			"target":34962
		},
		{
			"buffer":0,
			"byteLength":71952,
			"byteOffset":215856,
			"target":34962
		},
		{
			"buffer":0,
			"byteLength":60060,
			"byteOffset":287808,
			"target":34963
		}
	],
	"samplers":[
		{
			"magFilter":9729,
			"minFilter":9987
		}
	],
	"buffers":[
		{
			"byteLength":347868,
			"uri":"WhiteMask.bin"
		}
	]
}
