{
	"asset":{
		"generator":"Khronos glTF Blender I/O v5.1.20",
		"version":"2.0"
	},
	"extensionsUsed":[
		"KHR_materials_specular"
	],
	"scene":0,
	"scenes":[
		{
			"name":"Scene",
			"nodes":[
				0
			]
		}
	],
	"nodes":[
		{
			"mesh":0,
			"name":"SM_katana01",
			"scale":[
				0.009999997913837433,
				0.010000002570450306,
				0.009999999776482582
			]
		}
	],
	"materials":[
		{
			"doubleSided":true,
			"extensions":{
				"KHR_materials_specular":{
					"specularColorFactor":[
						0.0,
						0.0,
						0.0
					]
				}
			},
			"name":"Material #3",
			"pbrMetallicRoughness":{
				"baseColorFactor":[
					0.07058823853731155,
					0.07058823853731155,
					0.07058823853731155,
					1
				],
				"metallicFactor":0,
				"roughnessFactor":0.858578622341156
			}
		},
		{
			"doubleSided":true,
			"extensions":{
				"KHR_materials_specular":{
					"specularColorFactor":[
						0.0,
						0.0,
						0.0
					]
				}
			},
			"name":"Material #25",
			"pbrMetallicRoughness":{
				"baseColorFactor":[
					0.8941177129745483,
					0.8941177129745483,
					0.8941177129745483,
					1
				],
				"metallicFactor":0,
				"roughnessFactor":0.858578622341156
			}
		},
		{
			"doubleSided":true,
			"extensions":{
				"KHR_materials_specular":{
					"specularColorFactor":[
						0.0,
						0.0,
						0.0
					]
				}
			},
			"name":"Material #10",
			"pbrMetallicRoughness":{
				"baseColorFactor":[
					0.5879999995231628,
					0.5879999995231628,
					0.5879999995231628,
					1
				],
				"metallicFactor":0,
				"roughnessFactor":0.858578622341156
			}
		},
		{
			"doubleSided":true,
			"extensions":{
				"KHR_materials_specular":{
					"specularColorFactor":[
						2.0,
						2.0,
						2.0
					]
				}
			},
			"name":"Material #62",
			"pbrMetallicRoughness":{
				"metallicFactor":0,
				"roughnessFactor":0.556172251701355
			}
		}
	],
	"meshes":[
		{
			"name":"Mesh",
			"primitives":[
				{
					"attributes":{
						"POSITION":0,
						"NORMAL":1,
						"TEXCOORD_0":2,
						"TEXCOORD_1":3
					},
					"indices":4,
					"material":0
				},
				{
					"attributes":{
						"POSITION":5,
						"NORMAL":6,
						"TEXCOORD_0":7,
						"TEXCOORD_1":8
					},
					"indices":9,
					"material":1
				},
				{
					"attributes":{
						"POSITION":10,
						"NORMAL":11,
						"TEXCOORD_0":12,
						"TEXCOORD_1":13
					},
					"indices":14,
					"material":2
				},
				{
					"attributes":{
						"POSITION":15,
						"NORMAL":16,
						"TEXCOORD_0":17,
						"TEXCOORD_1":18
					},
					"indices":19,
					"material":3
				}
			]
		}
	],
	"accessors":[
		{
			"bufferView":0,
			"componentType":5126,
			"count":29287,
			"max":[
				4.058252334594727,
				3.832411050796509,
				8.408110618591309
			],
			"min":[
				-4.05824089050293,
				-4.507227897644043,
				-21.085586547851562
			],
			"type":"VEC3"
		},
		{
			"bufferView":1,
			"componentType":5126,
			"count":29287,
			"type":"VEC3"
		},
		{
			"bufferView":2,
			"componentType":5126,
			"count":29287,
			"type":"VEC2"
		},
		{
			"bufferView":3,
			"componentType":5126,
			"count":29287,
			"type":"VEC2"
		},
		{
			"bufferView":4,
			"componentType":5123,
			"count":119280,
			"type":"SCALAR"
		},
		{
			"bufferView":5,
			"componentType":5126,
			"count":420,
			"max":[
				0.99126797914505,
				2.640444278717041,
				6.882787704467773
			],
			"min":[
				-0.9243445992469788,
				-1.8622549772262573,
				-19.05668067932129
			],
			"type":"VEC3"
		},
		{
			"bufferView":6,
			"componentType":5126,
			"count":420,
			"type":"VEC3"
		},
		{
			"bufferView":7,
			"componentType":5126,
			"count":420,
			"type":"VEC2"
		},
		{
			"bufferView":8,
			"componentType":5126,
			"count":420,
			"type":"VEC2"
		},
		{
			"bufferView":9,
			"componentType":5123,
			"count":1920,
			"type":"SCALAR"
		},
		{
			"bufferView":10,
			"componentType":5126,
			"count":32,
			"max":[
				0.3325127959251404,
				1.393941044807434,
				9.119815826416016
			],
			"min":[
				-0.3353390097618103,
				-2.197431802749634,
				8.028282165527344
			],
			"type":"VEC3"
		},
		{
			"bufferView":11,
			"componentType":5126,
			"count":32,
			"type":"VEC3"
		},
		{
			"bufferView":12,
			"componentType":5126,
			"count":32,
			"type":"VEC2"
		},
		{
			"bufferView":13,
			"componentType":5126,
			"count":32,
			"type":"VEC2"
		},
		{
			"bufferView":14,
			"componentType":5123,
			"count":60,
			"type":"SCALAR"
		},
		{
			"bufferView":15,
			"componentType":5126,
			"count":12140,
			"max":[
				0.27795881032943726,
				7.2782368659973145,
				98.79389953613281
			],
			"min":[
				-0.2805969715118408,
				-2.218355894088745,
				8.386746406555176
			],
			"type":"VEC3"
		},
		{
			"bufferView":16,
			"componentType":5126,
			"count":12140,
			"type":"VEC3"
		},
		{
			"bufferView":17,
			"componentType":5126,
			"count":12140,
			"type":"VEC2"
		},
		{
			"bufferView":18,
			"componentType":5126,
			"count":12140,
			"type":"VEC2"
		},
		{
			"bufferView":19,
			"componentType":5123,
			"count":57288,
			"type":"SCALAR"
		}
	],
	"bufferViews":[
		{
			"buffer":0,
			"byteLength":351444,
			"byteOffset":0,
			"target":34962
		},
		{
			"buffer":0,
			"byteLength":351444,
			"byteOffset":351444,
			"target":34962
		},
		{
			"buffer":0,
			"byteLength":234296,
			"byteOffset":702888,
			"target":34962
		},
		{
			"buffer":0,
			"byteLength":234296,
			"byteOffset":937184,
			"target":34962
		},
		{
			"buffer":0,
			"byteLength":238560,
			"byteOffset":1171480,
			"target":34963
		},
		{
			"buffer":0,
			"byteLength":5040,
			"byteOffset":1410040,
			"target":34962
		},
		{
			"buffer":0,
			"byteLength":5040,
			"byteOffset":1415080,
			"target":34962
		},
		{
			"buffer":0,
			"byteLength":3360,
			"byteOffset":1420120,
			"target":34962
		},
		{
			"buffer":0,
			"byteLength":3360,
			"byteOffset":1423480,
			"target":34962
		},
		{
			"buffer":0,
			"byteLength":3840,
			"byteOffset":1426840,
			"target":34963
		},
		{
			"buffer":0,
			"byteLength":384,
			"byteOffset":1430680,
			"target":34962
		},
		{
			"buffer":0,
			"byteLength":384,
			"byteOffset":1431064,
			"target":34962
		},
		{
			"buffer":0,
			"byteLength":256,
			"byteOffset":1431448,
			"target":34962
		},
		{
			"buffer":0,
			"byteLength":256,
			"byteOffset":1431704,
			"target":34962
		},
		{
			"buffer":0,
			"byteLength":120,
			"byteOffset":1431960,
			"target":34963
		},
		{
			"buffer":0,
			"byteLength":145680,
			"byteOffset":1432080,
			"target":34962
		},
		{
			"buffer":0,
			"byteLength":145680,
			"byteOffset":1577760,
			"target":34962
		},
		{
			"buffer":0,
			"byteLength":97120,
			"byteOffset":1723440,
			"target":34962
		},
		{
			"buffer":0,
			"byteLength":97120,
			"byteOffset":1820560,
			"target":34962
		},
		{
			"buffer":0,
			"byteLength":114576,
			"byteOffset":1917680,
			"target":34963
		}
	],
	"buffers":[
		{
			"byteLength":2032256,
			"uri":"Katana.bin"
		}
	]
}
