{
	"asset":{
		"generator":"Khronos glTF Blender I/O v5.1.20",
		"version":"2.0"
	},
	"extensionsUsed":[
		"KHR_materials_specular"
	],
	"scene":0,
	"scenes":[
		{
			"name":"Scene",
			"nodes":[
				0
			]
		}
	],
	"nodes":[
		{
			"mesh":0,
			"name":"SM_Scabbard01",
			"scale":[
				0.009999994188547134,
				0.009999999776482582,
				0.010000008158385754
			]
		}
	],
	"materials":[
		{
			"doubleSided":true,
			"extensions":{
				"KHR_materials_specular":{
					"specularColorFactor":[
						0.0,
						0.0,
						0.0
					]
				}
			},
			"name":"Material #3.002",
			"pbrMetallicRoughness":{
				"baseColorFactor":[
					0.07058823853731155,
					0.07058823853731155,
					0.07058823853731155,
					1
				],
				"metallicFactor":0,
				"roughnessFactor":0.858578622341156
			}
		},
		{
			"doubleSided":true,
			"extensions":{
				"KHR_materials_specular":{
					"specularColorFactor":[
						0.0,
						0.0,
						0.0
					]
				}
			},
			"name":"Material #25.002",
			"pbrMetallicRoughness":{
				"baseColorFactor":[
					0.8941177129745483,
					0.8941177129745483,
					0.8941177129745483,
					1
				],
				"metallicFactor":0,
				"roughnessFactor":0.858578622341156
			}
		}
	],
	"meshes":[
		{
			"name":"Mesh.002",
			"primitives":[
				{
					"attributes":{
						"POSITION":0,
						"NORMAL":1,
						"TEXCOORD_0":2,
						"TEXCOORD_1":3
					},
					"indices":4,
					"material":0
				},
				{
					"attributes":{
						"POSITION":5,
						"NORMAL":6,
						"TEXCOORD_0":7,
						"TEXCOORD_1":8
					},
					"indices":9,
					"material":1
				}
			]
		}
	],
	"accessors":[
		{
			"bufferView":0,
			"componentType":5126,
			"count":13687,
			"max":[
				1.2480491399765015,
				8.25857925415039,
				15.796124458312988
			],
			"min":[
				-2.183304786682129,
				-2.573101758956909,
				-78.3268814086914
			],
			"type":"VEC3"
		},
		{
			"bufferView":1,
			"componentType":5126,
			"count":13687,
			"type":"VEC3"
		},
		{
			"bufferView":2,
			"componentType":5126,
			"count":13687,
			"type":"VEC2"
		},
		{
			"bufferView":3,
			"componentType":5126,
			"count":13687,
			"type":"VEC2"
		},
		{
			"bufferView":4,
			"componentType":5123,
			"count":22884,
			"type":"SCALAR"
		},
		{
			"bufferView":5,
			"componentType":5126,
			"count":38242,
			"max":[
				1.5325779914855957,
				2.707761764526367,
				6.936409950256348
			],
			"min":[
				-2.0536952018737793,
				-2.8261120319366455,
				-6.315917491912842
			],
			"type":"VEC3"
		},
		{
			"bufferView":6,
			"componentType":5126,
			"count":38242,
			"type":"VEC3"
		},
		{
			"bufferView":7,
			"componentType":5126,
			"count":38242,
			"type":"VEC2"
		},
		{
			"bufferView":8,
			"componentType":5126,
			"count":38242,
			"type":"VEC2"
		},
		{
			"bufferView":9,
			"componentType":5123,
			"count":57318,
			"type":"SCALAR"
		}
	],
	"bufferViews":[
		{
			"buffer":0,
			"byteLength":164244,
			"byteOffset":0,
			"target":34962
		},
		{
			"buffer":0,
			"byteLength":164244,
			"byteOffset":164244,
			"target":34962
		},
		{
			"buffer":0,
			"byteLength":109496,
			"byteOffset":328488,
			"target":34962
		},
		{
			"buffer":0,
			"byteLength":109496,
			"byteOffset":437984,
			"target":34962
		},
		{
			"buffer":0,
			"byteLength":45768,
			"byteOffset":547480,
			"target":34963
		},
		{
			"buffer":0,
			"byteLength":458904,
			"byteOffset":593248,
			"target":34962
		},
		{
			"buffer":0,
			"byteLength":458904,
			"byteOffset":1052152,
			"target":34962
		},
		{
			"buffer":0,
			"byteLength":305936,
			"byteOffset":1511056,
			"target":34962
		},
		{
			"buffer":0,
			"byteLength":305936,
			"byteOffset":1816992,
			"target":34962
		},
		{
			"buffer":0,
			"byteLength":114636,
			"byteOffset":2122928,
			"target":34963
		}
	],
	"buffers":[
		{
			"byteLength":2237564,
			"uri":"Scabbard.bin"
		}
	]
}
