{
	"asset":{
		"generator":"Khronos glTF Blender I/O v5.1.20",
		"version":"2.0"
	},
	"scene":0,
	"scenes":[
		{
			"name":"Scene",
			"nodes":[
				0
			]
		}
	],
	"nodes":[
		{
			"mesh":0,
			"name":"Male"
		}
	],
	"meshes":[
		{
			"name":"Male",
			"primitives":[
				{
					"attributes":{
						"POSITION":0,
						"NORMAL":1
					},
					"indices":2
				}
			]
		}
	],
	"accessors":[
		{
			"bufferView":0,
			"componentType":5126,
			"count":2820299,
			"max":[
				1.8897877931594849,
				7.020596027374268,
				0.8114064335823059
			],
			"min":[
				-1.8897793292999268,
				-0.009085027500987053,
				-0.48165997862815857
			],
			"type":"VEC3"
		},
		{
			"bufferView":1,
			"componentType":5126,
			"count":2820299,
			"type":"VEC3"
		},
		{
			"bufferView":2,
			"componentType":5125,
			"count":4231212,
			"type":"SCALAR"
		}
	],
	"bufferViews":[
		{
			"buffer":0,
			"byteLength":33843588,
			"byteOffset":0,
			"target":34962
		},
		{
			"buffer":0,
			"byteLength":33843588,
			"byteOffset":33843588,
			"target":34962
		},
		{
			"buffer":0,
			"byteLength":16924848,
			"byteOffset":67687176,
			"target":34963
		}
	],
	"buffers":[
		{
			"byteLength":84612024,
			"uri":"Male.bin"
		}
	]
}
