{
	"asset":{
		"generator":"Khronos glTF Blender I/O v5.1.20",
		"version":"2.0"
	},
	"scene":0,
	"scenes":[
		{
			"name":"Scene",
			"nodes":[
				0,
				1
			]
		}
	],
	"nodes":[
		{
			"mesh":0,
			"name":"Tachi_Model",
			"translation":[
				0,
				-0.007583934813737869,
				-0.11024899780750275
			]
		},
		{
			"mesh":1,
			"name":"Tachi_Sheat_Model",
			"translation":[
				0,
				-0.007583934813737869,
				-0.11024899780750275
			]
		}
	],
	"materials":[
		{
			"name":"Material",
			"pbrMetallicRoughness":{
				"baseColorTexture":{
					"index":0
				},
				"metallicFactor":0,
				"roughnessFactor":0.5
			}
		},
		{
			"name":"Material.001",
			"pbrMetallicRoughness":{
				"baseColorTexture":{
					"index":1
				},
				"metallicFactor":0,
				"roughnessFactor":0.5
			}
		}
	],
	"meshes":[
		{
			"name":"Cube.003",
			"primitives":[
				{
					"attributes":{
						"POSITION":0,
						"NORMAL":1,
						"TEXCOORD_0":2
					},
					"indices":3,
					"material":0
				},
				{
					"attributes":{
						"POSITION":4,
						"NORMAL":5,
						"TEXCOORD_0":6
					},
					"indices":7,
					"material":1
				}
			]
		},
		{
			"name":"Cube.012",
			"primitives":[
				{
					"attributes":{
						"POSITION":8,
						"NORMAL":9,
						"TEXCOORD_0":10
					},
					"indices":11,
					"material":0
				}
			]
		}
	],
	"textures":[
		{
			"sampler":0,
			"source":0
		},
		{
			"sampler":0,
			"source":0
		}
	],
	"images":[
		{
			"mimeType":"image/png",
			"name":"Japanese_Swords_Basecolor_01",
			"uri":"Japanese_Swords_Basecolor_01.png"
		}
	],
	"accessors":[
		{
			"bufferView":0,
			"componentType":5126,
			"count":1242,
			"max":[
				0.04405016452074051,
				0.05659866705536842,
				0.322184681892395
			],
			"min":[
				-0.04405023157596588,
				-0.05599004030227661,
				-1.026603102684021
			],
			"type":"VEC3"
		},
		{
			"bufferView":1,
			"componentType":5126,
			"count":1242,
			"type":"VEC3"
		},
		{
			"bufferView":2,
			"componentType":5126,
			"count":1242,
			"type":"VEC2"
		},
		{
			"bufferView":3,
			"componentType":5123,
			"count":3306,
			"type":"SCALAR"
		},
		{
			"bufferView":4,
			"componentType":5126,
			"count":320,
			"max":[
				0.015479020774364471,
				0.04800345376133919,
				0.30463600158691406
			],
			"min":[
				-0.015478402376174927,
				-0.0214981809258461,
				0.002138085663318634
			],
			"type":"VEC3"
		},
		{
			"bufferView":5,
			"componentType":5126,
			"count":320,
			"type":"VEC3"
		},
		{
			"bufferView":6,
			"componentType":5126,
			"count":320,
			"type":"VEC2"
		},
		{
			"bufferView":7,
			"componentType":5123,
			"count":960,
			"type":"SCALAR"
		},
		{
			"bufferView":8,
			"componentType":5126,
			"count":261,
			"max":[
				0.010295105166733265,
				0.04152265936136246,
				-0.0049908459186553955
			],
			"min":[
				-0.010294725187122822,
				-0.03260389715433121,
				-1.0316600799560547
			],
			"type":"VEC3"
		},
		{
			"bufferView":9,
			"componentType":5126,
			"count":261,
			"type":"VEC3"
		},
		{
			"bufferView":10,
			"componentType":5126,
			"count":261,
			"type":"VEC2"
		},
		{
			"bufferView":11,
			"componentType":5123,
			"count":1104,
			"type":"SCALAR"
		}
	],
	"bufferViews":[
		{
			"buffer":0,
			"byteLength":14904,
			"byteOffset":0,
			"target":34962
		},
		{
			"buffer":0,
			"byteLength":14904,
			"byteOffset":14904,
			"target":34962
		},
		{
			"buffer":0,
			"byteLength":9936,
			"byteOffset":29808,
			"target":34962
		},
		{
			"buffer":0,
			"byteLength":6612,
			"byteOffset":39744,
			"target":34963
		},
		{
			"buffer":0,
			"byteLength":3840,
			"byteOffset":46356,
			"target":34962
		},
		{
			"buffer":0,
			"byteLength":3840,
			"byteOffset":50196,
			"target":34962
		},
		{
			"buffer":0,
			"byteLength":2560,
			"byteOffset":54036,
			"target":34962
		},
		{
			"buffer":0,
			"byteLength":1920,
			"byteOffset":56596,
			"target":34963
		},
		{
			"buffer":0,
			"byteLength":3132,
			"byteOffset":58516,
			"target":34962
		},
		{
			"buffer":0,
			"byteLength":3132,
			"byteOffset":61648,
			"target":34962
		},
		{
			"buffer":0,
			"byteLength":2088,
			"byteOffset":64780,
			"target":34962
		},
		{
			"buffer":0,
			"byteLength":2208,
			"byteOffset":66868,
			"target":34963
		}
	],
	"samplers":[
		{
			"magFilter":9729,
			"minFilter":9987
		}
	],
	"buffers":[
		{
			"byteLength":69076,
			"uri":"Tachi.bin"
		}
	]
}
