{
	"asset":{
		"generator":"Khronos glTF Blender I/O v5.1.19",
		"version":"2.0"
	},
	"extensionsUsed":[
		"KHR_materials_specular",
		"KHR_materials_ior"
	],
	"scene":0,
	"scenes":[
		{
			"name":"Scene",
			"nodes":[
				0
			]
		}
	],
	"nodes":[
		{
			"mesh":0,
			"name":"Cherry_Blossom_Tree_Model_02"
		}
	],
	"materials":[
		{
			"doubleSided":true,
			"extensions":{
				"KHR_materials_specular":{
					"specularFactor":0
				},
				"KHR_materials_ior":{
					"ior":1.4500000476837158
				}
			},
			"name":"Material",
			"pbrMetallicRoughness":{
				"baseColorTexture":{
					"index":0
				},
				"metallicFactor":0
			}
		}
	],
	"meshes":[
		{
			"name":"Cube.031",
			"primitives":[
				{
					"attributes":{
						"POSITION":0,
						"NORMAL":1,
						"TEXCOORD_0":2
					},
					"indices":3,
					"material":0
				}
			]
		}
	],
	"textures":[
		{
			"sampler":0,
			"source":0
		}
	],
	"images":[
		{
			"mimeType":"image/png",
			"name":"Cherry_Blossom_Tree_Basecolor",
			"uri":"Cherry_Blossom_Tree_Basecolor.png"
		}
	],
	"accessors":[
		{
			"bufferView":0,
			"componentType":5126,
			"count":1051,
			"max":[
				1.4736816883087158,
				2.933971643447876,
				1.3083012104034424
			],
			"min":[
				-1.4547754526138306,
				-1.638111868373926e-08,
				-1.7477186918258667
			],
			"type":"VEC3"
		},
		{
			"bufferView":1,
			"componentType":5126,
			"count":1051,
			"type":"VEC3"
		},
		{
			"bufferView":2,
			"componentType":5126,
			"count":1051,
			"type":"VEC2"
		},
		{
			"bufferView":3,
			"componentType":5123,
			"count":1656,
			"type":"SCALAR"
		}
	],
	"bufferViews":[
		{
			"buffer":0,
			"byteLength":12612,
			"byteOffset":0,
			"target":34962
		},
		{
			"buffer":0,
			"byteLength":12612,
			"byteOffset":12612,
			"target":34962
		},
		{
			"buffer":0,
			"byteLength":8408,
			"byteOffset":25224,
			"target":34962
		},
		{
			"buffer":0,
			"byteLength":3312,
			"byteOffset":33632,
			"target":34963
		}
	],
	"samplers":[
		{
			"magFilter":9729,
			"minFilter":9987
		}
	],
	"buffers":[
		{
			"byteLength":36944,
			"uri":"Cherry_Blossom_Tree_b.bin"
		}
	]
}
