{
	"asset":{
		"generator":"Khronos glTF Blender I/O v5.1.19",
		"version":"2.0"
	},
	"extensionsUsed":[
		"KHR_materials_specular",
		"KHR_materials_ior"
	],
	"scene":0,
	"scenes":[
		{
			"name":"Scene",
			"nodes":[
				0
			]
		}
	],
	"nodes":[
		{
			"mesh":0,
			"name":"Cherry_Blossom_Tree_Model_03"
		}
	],
	"materials":[
		{
			"doubleSided":true,
			"extensions":{
				"KHR_materials_specular":{
					"specularFactor":0
				},
				"KHR_materials_ior":{
					"ior":1.4500000476837158
				}
			},
			"name":"Material",
			"pbrMetallicRoughness":{
				"baseColorTexture":{
					"index":0
				},
				"metallicFactor":0
			}
		}
	],
	"meshes":[
		{
			"name":"Cube.017",
			"primitives":[
				{
					"attributes":{
						"POSITION":0,
						"NORMAL":1,
						"TEXCOORD_0":2
					},
					"indices":3,
					"material":0
				}
			]
		}
	],
	"textures":[
		{
			"sampler":0,
			"source":0
		}
	],
	"images":[
		{
			"mimeType":"image/png",
			"name":"Cherry_Blossom_Tree_Basecolor",
			"uri":"Cherry_Blossom_Tree_Basecolor.png"
		}
	],
	"accessors":[
		{
			"bufferView":0,
			"componentType":5126,
			"count":673,
			"max":[
				0.8244536519050598,
				2.36576771736145,
				0.8039143681526184
			],
			"min":[
				-1.3754407167434692,
				0.0057777827605605125,
				-1.4592589139938354
			],
			"type":"VEC3"
		},
		{
			"bufferView":1,
			"componentType":5126,
			"count":673,
			"type":"VEC3"
		},
		{
			"bufferView":2,
			"componentType":5126,
			"count":673,
			"type":"VEC2"
		},
		{
			"bufferView":3,
			"componentType":5123,
			"count":1077,
			"type":"SCALAR"
		}
	],
	"bufferViews":[
		{
			"buffer":0,
			"byteLength":8076,
			"byteOffset":0,
			"target":34962
		},
		{
			"buffer":0,
			"byteLength":8076,
			"byteOffset":8076,
			"target":34962
		},
		{
			"buffer":0,
			"byteLength":5384,
			"byteOffset":16152,
			"target":34962
		},
		{
			"buffer":0,
			"byteLength":2154,
			"byteOffset":21536,
			"target":34963
		}
	],
	"samplers":[
		{
			"magFilter":9729,
			"minFilter":9987
		}
	],
	"buffers":[
		{
			"byteLength":23692,
			"uri":"Cherry_Blossom_Tree_c.bin"
		}
	]
}
