{
	"asset":{
		"generator":"Khronos glTF Blender I/O v5.1.19",
		"version":"2.0"
	},
	"extensionsUsed":[
		"KHR_materials_specular",
		"KHR_materials_ior"
	],
	"scene":0,
	"scenes":[
		{
			"name":"Scene",
			"nodes":[
				0
			]
		}
	],
	"nodes":[
		{
			"mesh":0,
			"name":"Cherry_Blossom_Tree_Model_01"
		}
	],
	"materials":[
		{
			"doubleSided":true,
			"extensions":{
				"KHR_materials_specular":{
					"specularFactor":0
				},
				"KHR_materials_ior":{
					"ior":1.4500000476837158
				}
			},
			"name":"Material",
			"pbrMetallicRoughness":{
				"baseColorTexture":{
					"index":0
				},
				"metallicFactor":0
			}
		}
	],
	"meshes":[
		{
			"name":"Cube.028",
			"primitives":[
				{
					"attributes":{
						"POSITION":0,
						"NORMAL":1,
						"TEXCOORD_0":2
					},
					"indices":3,
					"material":0
				}
			]
		}
	],
	"textures":[
		{
			"sampler":0,
			"source":0
		}
	],
	"images":[
		{
			"mimeType":"image/png",
			"name":"Cherry_Blossom_Tree_Basecolor",
			"uri":"Cherry_Blossom_Tree_Basecolor.png"
		}
	],
	"accessors":[
		{
			"bufferView":0,
			"componentType":5126,
			"count":894,
			"max":[
				2.409034013748169,
				3.768867015838623,
				2.132172107696533
			],
			"min":[
				-2.7346556186676025,
				0.007758751045912504,
				-1.2391501665115356
			],
			"type":"VEC3"
		},
		{
			"bufferView":1,
			"componentType":5126,
			"count":894,
			"type":"VEC3"
		},
		{
			"bufferView":2,
			"componentType":5126,
			"count":894,
			"type":"VEC2"
		},
		{
			"bufferView":3,
			"componentType":5123,
			"count":1488,
			"type":"SCALAR"
		}
	],
	"bufferViews":[
		{
			"buffer":0,
			"byteLength":10728,
			"byteOffset":0,
			"target":34962
		},
		{
			"buffer":0,
			"byteLength":10728,
			"byteOffset":10728,
			"target":34962
		},
		{
			"buffer":0,
			"byteLength":7152,
			"byteOffset":21456,
			"target":34962
		},
		{
			"buffer":0,
			"byteLength":2976,
			"byteOffset":28608,
			"target":34963
		}
	],
	"samplers":[
		{
			"magFilter":9729,
			"minFilter":9987
		}
	],
	"buffers":[
		{
			"byteLength":31584,
			"uri":"Cherry_Blossom_Tree_a.bin"
		}
	]
}
